<svg xmlns="http://www.w3.org/2000/svg" viewBox="0 0 400 300" role="img" aria-label="Banh mi chicken bowls">
  <defs>
    <radialGradient id="bg" cx="40%" cy="30%" r="80%"><stop offset="0" stop-color="#FFFCF6"/><stop offset="1" stop-color="#E5EEDF"/></radialGradient>
    <radialGradient id="shine" cx="35%" cy="30%" r="70%"><stop offset="0" stop-color="#FFFFFF" stop-opacity="0.35"/><stop offset="1" stop-color="#FFFFFF" stop-opacity="0"/></radialGradient>
  </defs>
  <rect width="400" height="300" rx="28" fill="url(#bg)"/>
  <circle cx="62" cy="258" r="5" fill="#F2A41E" opacity="0.5"/>
  <circle cx="340" cy="47" r="4" fill="#1B1B44" opacity="0.15"/>
  <ellipse cx="200" cy="162" rx="146" ry="110" fill="#000" opacity="0.07"/><circle cx="200" cy="150" r="135" fill="#FFFFFF"/><circle cx="200" cy="150" r="135" fill="none" stroke="#E7E1D6" stroke-width="3"/><circle cx="200" cy="150" r="110" fill="none" stroke="#F1ECE3" stroke-width="2"/>
  <g><ellipse cx="210" cy="156" rx="86" ry="70" fill="#7A4320" opacity="0.85"/><ellipse cx="154" cy="176" rx="58" ry="44" fill="#FBF8F1"/><ellipse cx="127.3" cy="167.0" rx="3.2" ry="1.4" fill="#E9E1CF" transform="rotate(83 127.3 167.0)"/><ellipse cx="104.6" cy="169.1" rx="3.2" ry="1.4" fill="#E9E1CF" transform="rotate(75 104.6 169.1)"/><ellipse cx="176.6" cy="155.2" rx="3.2" ry="1.4" fill="#E9E1CF" transform="rotate(114 176.6 155.2)"/><ellipse cx="135.3" cy="178.1" rx="3.2" ry="1.4" fill="#E9E1CF" transform="rotate(145 135.3 178.1)"/><ellipse cx="161.5" cy="188.0" rx="3.2" ry="1.4" fill="#E9E1CF" transform="rotate(137 161.5 188.0)"/><ellipse cx="205.1" cy="171.9" rx="3.2" ry="1.4" fill="#E9E1CF" transform="rotate(70 205.1 171.9)"/><ellipse cx="184.3" cy="152.7" rx="3.2" ry="1.4" fill="#E9E1CF" transform="rotate(52 184.3 152.7)"/><ellipse cx="139.1" cy="160.7" rx="3.2" ry="1.4" fill="#E9E1CF" transform="rotate(11 139.1 160.7)"/><ellipse cx="162.4" cy="195.4" rx="3.2" ry="1.4" fill="#E9E1CF" transform="rotate(64 162.4 195.4)"/><ellipse cx="180.3" cy="166.1" rx="3.2" ry="1.4" fill="#E9E1CF" transform="rotate(142 180.3 166.1)"/><ellipse cx="120.3" cy="167.3" rx="3.2" ry="1.4" fill="#E9E1CF" transform="rotate(111 120.3 167.3)"/><ellipse cx="181.0" cy="192.1" rx="3.2" ry="1.4" fill="#E9E1CF" transform="rotate(30 181.0 192.1)"/><ellipse cx="174.9" cy="175.6" rx="3.2" ry="1.4" fill="#E9E1CF" transform="rotate(128 174.9 175.6)"/><ellipse cx="143.2" cy="163.5" rx="3.2" ry="1.4" fill="#E9E1CF" transform="rotate(164 143.2 163.5)"/><ellipse cx="141.5" cy="170.0" rx="3.2" ry="1.4" fill="#E9E1CF" transform="rotate(5 141.5 170.0)"/><ellipse cx="202.7" cy="170.6" rx="3.2" ry="1.4" fill="#E9E1CF" transform="rotate(74 202.7 170.6)"/><ellipse cx="173.5" cy="193.0" rx="3.2" ry="1.4" fill="#E9E1CF" transform="rotate(98 173.5 193.0)"/><ellipse cx="132.2" cy="174.5" rx="3.2" ry="1.4" fill="#E9E1CF" transform="rotate(83 132.2 174.5)"/><ellipse cx="162.6" cy="145.3" rx="3.2" ry="1.4" fill="#E9E1CF" transform="rotate(47 162.6 145.3)"/><ellipse cx="126.7" cy="153.2" rx="3.2" ry="1.4" fill="#E9E1CF" transform="rotate(179 126.7 153.2)"/><ellipse cx="114.2" cy="186.6" rx="3.2" ry="1.4" fill="#E9E1CF" transform="rotate(67 114.2 186.6)"/><ellipse cx="196.1" cy="174.6" rx="3.2" ry="1.4" fill="#E9E1CF" transform="rotate(139 196.1 174.6)"/><ellipse cx="120.7" cy="168.4" rx="3.2" ry="1.4" fill="#E9E1CF" transform="rotate(124 120.7 168.4)"/><ellipse cx="146.9" cy="151.7" rx="3.2" ry="1.4" fill="#E9E1CF" transform="rotate(11 146.9 151.7)"/><ellipse cx="105.2" cy="174.1" rx="3.2" ry="1.4" fill="#E9E1CF" transform="rotate(158 105.2 174.1)"/><ellipse cx="141.6" cy="199.0" rx="3.2" ry="1.4" fill="#E9E1CF" transform="rotate(91 141.6 199.0)"/><ellipse cx="194.4" cy="170.3" rx="3.2" ry="1.4" fill="#E9E1CF" transform="rotate(57 194.4 170.3)"/><ellipse cx="104.3" cy="169.6" rx="3.2" ry="1.4" fill="#E9E1CF" transform="rotate(141 104.3 169.6)"/><ellipse cx="117.7" cy="151.7" rx="3.2" ry="1.4" fill="#E9E1CF" transform="rotate(107 117.7 151.7)"/><ellipse cx="145.9" cy="170.1" rx="3.2" ry="1.4" fill="#E9E1CF" transform="rotate(42 145.9 170.1)"/><ellipse cx="179.0" cy="193.9" rx="3.2" ry="1.4" fill="#E9E1CF" transform="rotate(22 179.0 193.9)"/><ellipse cx="170.3" cy="209.7" rx="3.2" ry="1.4" fill="#E9E1CF" transform="rotate(103 170.3 209.7)"/><ellipse cx="142.7" cy="163.9" rx="3.2" ry="1.4" fill="#E9E1CF" transform="rotate(115 142.7 163.9)"/><ellipse cx="169.9" cy="198.7" rx="3.2" ry="1.4" fill="#E9E1CF" transform="rotate(86 169.9 198.7)"/><ellipse cx="177.1" cy="165.8" rx="3.2" ry="1.4" fill="#E9E1CF" transform="rotate(80 177.1 165.8)"/><ellipse cx="162.4" cy="180.6" rx="3.2" ry="1.4" fill="#E9E1CF" transform="rotate(143 162.4 180.6)"/><ellipse cx="141.7" cy="188.5" rx="3.2" ry="1.4" fill="#E9E1CF" transform="rotate(92 141.7 188.5)"/><ellipse cx="135.2" cy="142.1" rx="3.2" ry="1.4" fill="#E9E1CF" transform="rotate(85 135.2 142.1)"/><ellipse cx="130.2" cy="161.7" rx="3.2" ry="1.4" fill="#E9E1CF" transform="rotate(158 130.2 161.7)"/><ellipse cx="172.3" cy="152.0" rx="3.2" ry="1.4" fill="#E9E1CF" transform="rotate(129 172.3 152.0)"/><ellipse cx="194.1" cy="181.6" rx="3.2" ry="1.4" fill="#E9E1CF" transform="rotate(65 194.1 181.6)"/><ellipse cx="132.6" cy="171.2" rx="3.2" ry="1.4" fill="#E9E1CF" transform="rotate(39 132.6 171.2)"/><ellipse cx="200.9" cy="184.3" rx="3.2" ry="1.4" fill="#E9E1CF" transform="rotate(46 200.9 184.3)"/><ellipse cx="137.3" cy="153.4" rx="3.2" ry="1.4" fill="#E9E1CF" transform="rotate(29 137.3 153.4)"/><ellipse cx="176.7" cy="169.3" rx="3.2" ry="1.4" fill="#E9E1CF" transform="rotate(131 176.7 169.3)"/><ellipse cx="200.7" cy="192.5" rx="3.2" ry="1.4" fill="#E9E1CF" transform="rotate(131 200.7 192.5)"/><ellipse cx="107.4" cy="174.3" rx="3.2" ry="1.4" fill="#E9E1CF" transform="rotate(128 107.4 174.3)"/><ellipse cx="121.1" cy="172.1" rx="3.2" ry="1.4" fill="#E9E1CF" transform="rotate(173 121.1 172.1)"/><ellipse cx="119.2" cy="196.2" rx="3.2" ry="1.4" fill="#E9E1CF" transform="rotate(98 119.2 196.2)"/><ellipse cx="178.8" cy="188.5" rx="3.2" ry="1.4" fill="#E9E1CF" transform="rotate(95 178.8 188.5)"/><ellipse cx="117.9" cy="177.1" rx="3.2" ry="1.4" fill="#E9E1CF" transform="rotate(97 117.9 177.1)"/><ellipse cx="154.3" cy="177.1" rx="3.2" ry="1.4" fill="#E9E1CF" transform="rotate(37 154.3 177.1)"/><ellipse cx="143.4" cy="174.9" rx="3.2" ry="1.4" fill="#E9E1CF" transform="rotate(133 143.4 174.9)"/><ellipse cx="150.8" cy="173.2" rx="3.2" ry="1.4" fill="#E9E1CF" transform="rotate(8 150.8 173.2)"/><ellipse cx="197.2" cy="196.8" rx="3.2" ry="1.4" fill="#E9E1CF" transform="rotate(72 197.2 196.8)"/><ellipse cx="157.3" cy="212.7" rx="3.2" ry="1.4" fill="#E9E1CF" transform="rotate(83 157.3 212.7)"/><ellipse cx="138.5" cy="196.1" rx="3.2" ry="1.4" fill="#E9E1CF" transform="rotate(70 138.5 196.1)"/><ellipse cx="126.0" cy="156.1" rx="3.2" ry="1.4" fill="#E9E1CF" transform="rotate(158 126.0 156.1)"/><ellipse cx="173.7" cy="200.0" rx="3.2" ry="1.4" fill="#E9E1CF" transform="rotate(79 173.7 200.0)"/><ellipse cx="172.1" cy="160.7" rx="3.2" ry="1.4" fill="#E9E1CF" transform="rotate(131 172.1 160.7)"/><ellipse cx="134.8" cy="173.5" rx="3.2" ry="1.4" fill="#E9E1CF" transform="rotate(161 134.8 173.5)"/><ellipse cx="154.0" cy="206.1" rx="3.2" ry="1.4" fill="#E9E1CF" transform="rotate(66 154.0 206.1)"/><ellipse cx="187.5" cy="148.1" rx="3.2" ry="1.4" fill="#E9E1CF" transform="rotate(77 187.5 148.1)"/><ellipse cx="185.0" cy="173.8" rx="3.2" ry="1.4" fill="#E9E1CF" transform="rotate(33 185.0 173.8)"/><ellipse cx="136.4" cy="201.8" rx="3.2" ry="1.4" fill="#E9E1CF" transform="rotate(55 136.4 201.8)"/><ellipse cx="172.6" cy="191.4" rx="3.2" ry="1.4" fill="#E9E1CF" transform="rotate(80 172.6 191.4)"/><ellipse cx="148.8" cy="192.4" rx="3.2" ry="1.4" fill="#E9E1CF" transform="rotate(147 148.8 192.4)"/><ellipse cx="163.7" cy="202.1" rx="3.2" ry="1.4" fill="#E9E1CF" transform="rotate(40 163.7 202.1)"/><ellipse cx="148.8" cy="143.1" rx="3.2" ry="1.4" fill="#E9E1CF" transform="rotate(175 148.8 143.1)"/><ellipse cx="123.6" cy="202.8" rx="3.2" ry="1.4" fill="#E9E1CF" transform="rotate(113 123.6 202.8)"/><rect x="190" y="88" width="26" height="46" rx="10" fill="#E8C08A" transform="rotate(-18 203 110)"/><line x1="194" y1="100" x2="212" y2="96" stroke="#B9824A" stroke-width="3" stroke-linecap="round" transform="rotate(-18 203 110)"/><line x1="194" y1="114" x2="212" y2="110" stroke="#B9824A" stroke-width="3" stroke-linecap="round" transform="rotate(-18 203 110)"/><rect x="210" y="98" width="26" height="46" rx="10" fill="#E8C08A" transform="rotate(-18 223 120)"/><line x1="214" y1="110" x2="232" y2="106" stroke="#B9824A" stroke-width="3" stroke-linecap="round" transform="rotate(-18 223 120)"/><line x1="214" y1="124" x2="232" y2="120" stroke="#B9824A" stroke-width="3" stroke-linecap="round" transform="rotate(-18 223 120)"/><rect x="230" y="88" width="26" height="46" rx="10" fill="#E8C08A" transform="rotate(-18 243 110)"/><line x1="234" y1="100" x2="252" y2="96" stroke="#B9824A" stroke-width="3" stroke-linecap="round" transform="rotate(-18 243 110)"/><line x1="234" y1="114" x2="252" y2="110" stroke="#B9824A" stroke-width="3" stroke-linecap="round" transform="rotate(-18 243 110)"/><rect x="250" y="98" width="26" height="46" rx="10" fill="#E8C08A" transform="rotate(-18 263 120)"/><line x1="254" y1="110" x2="272" y2="106" stroke="#B9824A" stroke-width="3" stroke-linecap="round" transform="rotate(-18 263 120)"/><line x1="254" y1="124" x2="272" y2="120" stroke="#B9824A" stroke-width="3" stroke-linecap="round" transform="rotate(-18 263 120)"/><rect x="270" y="88" width="26" height="46" rx="10" fill="#E8C08A" transform="rotate(-18 283 110)"/><line x1="274" y1="100" x2="292" y2="96" stroke="#B9824A" stroke-width="3" stroke-linecap="round" transform="rotate(-18 283 110)"/><line x1="274" y1="114" x2="292" y2="110" stroke="#B9824A" stroke-width="3" stroke-linecap="round" transform="rotate(-18 283 110)"/><path d="M265.4 188.6 q 14 -16 28 0 q -14 16 -28 0 z" fill="#4E9440" transform="rotate(87 265.4 188.6)"/><path d="M256.3 189.5 q 14 -16 28 0 q -14 16 -28 0 z" fill="#6AAE4B" transform="rotate(146 256.3 189.5)"/><path d="M240.2 194.7 q 14 -16 28 0 q -14 16 -28 0 z" fill="#4E9440" transform="rotate(98 240.2 194.7)"/><path d="M228.8 199.3 q 14 -16 28 0 q -14 16 -28 0 z" fill="#6AAE4B" transform="rotate(178 228.8 199.3)"/><path d="M240.3 202.4 q 14 -16 28 0 q -14 16 -28 0 z" fill="#4E9440" transform="rotate(173 240.3 202.4)"/><path d="M262.3 211.8 q 14 -16 28 0 q -14 16 -28 0 z" fill="#6AAE4B" transform="rotate(102 262.3 211.8)"/><rect x="120.0" y="105.9" width="26" height="6" rx="3" fill="#EE8A2E" transform="rotate(76 120.0 105.9)"/><rect x="179.6" y="97.7" width="26" height="6" rx="3" fill="#EE8A2E" transform="rotate(18 179.6 97.7)"/><rect x="154.9" y="116.8" width="26" height="6" rx="3" fill="#EE8A2E" transform="rotate(120 154.9 116.8)"/><rect x="169.7" y="100.4" width="26" height="6" rx="3" fill="#EE8A2E" transform="rotate(128 169.7 100.4)"/><rect x="159.3" y="82.6" width="26" height="6" rx="3" fill="#EE8A2E" transform="rotate(157 159.3 82.6)"/><rect x="175.7" y="91.6" width="26" height="6" rx="3" fill="#EE8A2E" transform="rotate(139 175.7 91.6)"/><rect x="159.6" y="99.2" width="26" height="6" rx="3" fill="#EE8A2E" transform="rotate(89 159.6 99.2)"/><circle cx="220" cy="142" r="11" fill="#CFE6A9" stroke="#4F8A3A" stroke-width="3"/><circle cx="240" cy="156" r="11" fill="#CFE6A9" stroke="#4F8A3A" stroke-width="3"/><circle cx="260" cy="142" r="11" fill="#CFE6A9" stroke="#4F8A3A" stroke-width="3"/><circle cx="280" cy="156" r="11" fill="#CFE6A9" stroke="#4F8A3A" stroke-width="3"/></g>
  <g transform="translate(330 248) scale(0.085)" opacity="0.9">
    <path d="M95 400 C113.3 369.2 167.5 224.2 205 215 C242.5 205.8 283.3 355.0 320 345 C356.7 335.0 395.8 145.0 425 155 C454.2 165.0 483.3 363.3 495 405" fill="none" stroke="#1B1B44" stroke-width="44" stroke-linecap="round" stroke-linejoin="round"/>
    <circle cx="425" cy="78" r="34" fill="#F2A41E"/></g>
</svg>
