<svg xmlns="http://www.w3.org/2000/svg" viewBox="0 0 400 300" role="img" aria-label="Butter chicken">
  <defs>
    <radialGradient id="bg" cx="40%" cy="30%" r="80%"><stop offset="0" stop-color="#FFFCF6"/><stop offset="1" stop-color="#F7E6CC"/></radialGradient>
    <radialGradient id="shine" cx="35%" cy="30%" r="70%"><stop offset="0" stop-color="#FFFFFF" stop-opacity="0.35"/><stop offset="1" stop-color="#FFFFFF" stop-opacity="0"/></radialGradient>
  </defs>
  <rect width="400" height="300" rx="28" fill="url(#bg)"/>
  <circle cx="78" cy="255" r="5" fill="#F2A41E" opacity="0.5"/>
  <circle cx="356" cy="50" r="4" fill="#1B1B44" opacity="0.15"/>
  <ellipse cx="200" cy="162" rx="146" ry="110" fill="#000" opacity="0.07"/><circle cx="200" cy="150" r="135" fill="#FFFFFF"/><circle cx="200" cy="150" r="135" fill="none" stroke="#E7E1D6" stroke-width="3"/><circle cx="200" cy="150" r="110" fill="none" stroke="#F1ECE3" stroke-width="2"/>
  <g><ellipse cx="210" cy="156" rx="86" ry="70" fill="#C8432C" opacity="0.85"/><ellipse cx="154" cy="176" rx="58" ry="44" fill="#FBF8F1"/><ellipse cx="130.8" cy="192.7" rx="3.2" ry="1.4" fill="#E9E1CF" transform="rotate(109 130.8 192.7)"/><ellipse cx="136.9" cy="153.5" rx="3.2" ry="1.4" fill="#E9E1CF" transform="rotate(18 136.9 153.5)"/><ellipse cx="200.8" cy="179.0" rx="3.2" ry="1.4" fill="#E9E1CF" transform="rotate(133 200.8 179.0)"/><ellipse cx="180.5" cy="208.0" rx="3.2" ry="1.4" fill="#E9E1CF" transform="rotate(82 180.5 208.0)"/><ellipse cx="185.9" cy="197.1" rx="3.2" ry="1.4" fill="#E9E1CF" transform="rotate(84 185.9 197.1)"/><ellipse cx="185.1" cy="169.2" rx="3.2" ry="1.4" fill="#E9E1CF" transform="rotate(46 185.1 169.2)"/><ellipse cx="129.3" cy="160.2" rx="3.2" ry="1.4" fill="#E9E1CF" transform="rotate(45 129.3 160.2)"/><ellipse cx="194.5" cy="199.7" rx="3.2" ry="1.4" fill="#E9E1CF" transform="rotate(5 194.5 199.7)"/><ellipse cx="180.2" cy="183.4" rx="3.2" ry="1.4" fill="#E9E1CF" transform="rotate(55 180.2 183.4)"/><ellipse cx="192.2" cy="175.2" rx="3.2" ry="1.4" fill="#E9E1CF" transform="rotate(175 192.2 175.2)"/><ellipse cx="170.3" cy="186.4" rx="3.2" ry="1.4" fill="#E9E1CF" transform="rotate(21 170.3 186.4)"/><ellipse cx="163.3" cy="200.7" rx="3.2" ry="1.4" fill="#E9E1CF" transform="rotate(57 163.3 200.7)"/><ellipse cx="171.3" cy="144.6" rx="3.2" ry="1.4" fill="#E9E1CF" transform="rotate(61 171.3 144.6)"/><ellipse cx="135.7" cy="140.8" rx="3.2" ry="1.4" fill="#E9E1CF" transform="rotate(94 135.7 140.8)"/><ellipse cx="116.3" cy="187.0" rx="3.2" ry="1.4" fill="#E9E1CF" transform="rotate(176 116.3 187.0)"/><ellipse cx="196.7" cy="179.2" rx="3.2" ry="1.4" fill="#E9E1CF" transform="rotate(6 196.7 179.2)"/><ellipse cx="192.5" cy="189.6" rx="3.2" ry="1.4" fill="#E9E1CF" transform="rotate(116 192.5 189.6)"/><ellipse cx="137.5" cy="189.1" rx="3.2" ry="1.4" fill="#E9E1CF" transform="rotate(72 137.5 189.1)"/><ellipse cx="124.3" cy="182.9" rx="3.2" ry="1.4" fill="#E9E1CF" transform="rotate(36 124.3 182.9)"/><ellipse cx="177.1" cy="175.3" rx="3.2" ry="1.4" fill="#E9E1CF" transform="rotate(161 177.1 175.3)"/><ellipse cx="127.2" cy="151.7" rx="3.2" ry="1.4" fill="#E9E1CF" transform="rotate(88 127.2 151.7)"/><ellipse cx="114.9" cy="200.1" rx="3.2" ry="1.4" fill="#E9E1CF" transform="rotate(173 114.9 200.1)"/><ellipse cx="162.8" cy="204.0" rx="3.2" ry="1.4" fill="#E9E1CF" transform="rotate(65 162.8 204.0)"/><ellipse cx="103.6" cy="171.7" rx="3.2" ry="1.4" fill="#E9E1CF" transform="rotate(37 103.6 171.7)"/><ellipse cx="118.4" cy="159.3" rx="3.2" ry="1.4" fill="#E9E1CF" transform="rotate(5 118.4 159.3)"/><ellipse cx="148.2" cy="201.4" rx="3.2" ry="1.4" fill="#E9E1CF" transform="rotate(154 148.2 201.4)"/><ellipse cx="147.2" cy="157.3" rx="3.2" ry="1.4" fill="#E9E1CF" transform="rotate(150 147.2 157.3)"/><ellipse cx="144.8" cy="150.7" rx="3.2" ry="1.4" fill="#E9E1CF" transform="rotate(25 144.8 150.7)"/><ellipse cx="162.7" cy="210.2" rx="3.2" ry="1.4" fill="#E9E1CF" transform="rotate(41 162.7 210.2)"/><ellipse cx="158.0" cy="201.3" rx="3.2" ry="1.4" fill="#E9E1CF" transform="rotate(93 158.0 201.3)"/><ellipse cx="136.0" cy="203.8" rx="3.2" ry="1.4" fill="#E9E1CF" transform="rotate(113 136.0 203.8)"/><ellipse cx="130.3" cy="142.2" rx="3.2" ry="1.4" fill="#E9E1CF" transform="rotate(178 130.3 142.2)"/><ellipse cx="150.0" cy="212.3" rx="3.2" ry="1.4" fill="#E9E1CF" transform="rotate(125 150.0 212.3)"/><ellipse cx="120.4" cy="202.3" rx="3.2" ry="1.4" fill="#E9E1CF" transform="rotate(99 120.4 202.3)"/><ellipse cx="138.1" cy="143.7" rx="3.2" ry="1.4" fill="#E9E1CF" transform="rotate(22 138.1 143.7)"/><ellipse cx="155.6" cy="155.5" rx="3.2" ry="1.4" fill="#E9E1CF" transform="rotate(10 155.6 155.5)"/><ellipse cx="155.1" cy="173.7" rx="3.2" ry="1.4" fill="#E9E1CF" transform="rotate(52 155.1 173.7)"/><ellipse cx="146.0" cy="166.1" rx="3.2" ry="1.4" fill="#E9E1CF" transform="rotate(96 146.0 166.1)"/><ellipse cx="142.4" cy="153.9" rx="3.2" ry="1.4" fill="#E9E1CF" transform="rotate(23 142.4 153.9)"/><ellipse cx="124.8" cy="188.6" rx="3.2" ry="1.4" fill="#E9E1CF" transform="rotate(178 124.8 188.6)"/><ellipse cx="190.9" cy="155.7" rx="3.2" ry="1.4" fill="#E9E1CF" transform="rotate(158 190.9 155.7)"/><ellipse cx="142.0" cy="175.6" rx="3.2" ry="1.4" fill="#E9E1CF" transform="rotate(113 142.0 175.6)"/><ellipse cx="152.2" cy="188.8" rx="3.2" ry="1.4" fill="#E9E1CF" transform="rotate(167 152.2 188.8)"/><ellipse cx="167.1" cy="149.1" rx="3.2" ry="1.4" fill="#E9E1CF" transform="rotate(94 167.1 149.1)"/><ellipse cx="177.4" cy="194.4" rx="3.2" ry="1.4" fill="#E9E1CF" transform="rotate(60 177.4 194.4)"/><ellipse cx="109.9" cy="183.4" rx="3.2" ry="1.4" fill="#E9E1CF" transform="rotate(174 109.9 183.4)"/><ellipse cx="124.2" cy="155.0" rx="3.2" ry="1.4" fill="#E9E1CF" transform="rotate(92 124.2 155.0)"/><ellipse cx="183.5" cy="151.0" rx="3.2" ry="1.4" fill="#E9E1CF" transform="rotate(160 183.5 151.0)"/><ellipse cx="121.9" cy="151.7" rx="3.2" ry="1.4" fill="#E9E1CF" transform="rotate(14 121.9 151.7)"/><ellipse cx="159.7" cy="147.4" rx="3.2" ry="1.4" fill="#E9E1CF" transform="rotate(129 159.7 147.4)"/><ellipse cx="139.5" cy="196.5" rx="3.2" ry="1.4" fill="#E9E1CF" transform="rotate(20 139.5 196.5)"/><ellipse cx="135.3" cy="195.1" rx="3.2" ry="1.4" fill="#E9E1CF" transform="rotate(20 135.3 195.1)"/><ellipse cx="146.9" cy="157.4" rx="3.2" ry="1.4" fill="#E9E1CF" transform="rotate(15 146.9 157.4)"/><ellipse cx="197.4" cy="170.5" rx="3.2" ry="1.4" fill="#E9E1CF" transform="rotate(119 197.4 170.5)"/><ellipse cx="140.3" cy="167.9" rx="3.2" ry="1.4" fill="#E9E1CF" transform="rotate(77 140.3 167.9)"/><ellipse cx="149.5" cy="142.6" rx="3.2" ry="1.4" fill="#E9E1CF" transform="rotate(139 149.5 142.6)"/><ellipse cx="151.9" cy="160.9" rx="3.2" ry="1.4" fill="#E9E1CF" transform="rotate(85 151.9 160.9)"/><ellipse cx="178.6" cy="162.5" rx="3.2" ry="1.4" fill="#E9E1CF" transform="rotate(102 178.6 162.5)"/><ellipse cx="105.0" cy="178.5" rx="3.2" ry="1.4" fill="#E9E1CF" transform="rotate(32 105.0 178.5)"/><ellipse cx="145.9" cy="177.8" rx="3.2" ry="1.4" fill="#E9E1CF" transform="rotate(179 145.9 177.8)"/><ellipse cx="183.3" cy="177.8" rx="3.2" ry="1.4" fill="#E9E1CF" transform="rotate(33 183.3 177.8)"/><ellipse cx="137.1" cy="186.6" rx="3.2" ry="1.4" fill="#E9E1CF" transform="rotate(95 137.1 186.6)"/><ellipse cx="175.0" cy="165.5" rx="3.2" ry="1.4" fill="#E9E1CF" transform="rotate(137 175.0 165.5)"/><ellipse cx="147.2" cy="191.4" rx="3.2" ry="1.4" fill="#E9E1CF" transform="rotate(171 147.2 191.4)"/><ellipse cx="130.8" cy="189.7" rx="3.2" ry="1.4" fill="#E9E1CF" transform="rotate(162 130.8 189.7)"/><ellipse cx="157.2" cy="213.3" rx="3.2" ry="1.4" fill="#E9E1CF" transform="rotate(100 157.2 213.3)"/><ellipse cx="108.7" cy="190.5" rx="3.2" ry="1.4" fill="#E9E1CF" transform="rotate(13 108.7 190.5)"/><ellipse cx="154.7" cy="150.6" rx="3.2" ry="1.4" fill="#E9E1CF" transform="rotate(68 154.7 150.6)"/><ellipse cx="158.3" cy="202.2" rx="3.2" ry="1.4" fill="#E9E1CF" transform="rotate(78 158.3 202.2)"/><ellipse cx="137.9" cy="207.9" rx="3.2" ry="1.4" fill="#E9E1CF" transform="rotate(29 137.9 207.9)"/><rect x="190" y="88" width="26" height="46" rx="10" fill="#E8C08A" transform="rotate(-18 203 110)"/><line x1="194" y1="100" x2="212" y2="96" stroke="#B9824A" stroke-width="3" stroke-linecap="round" transform="rotate(-18 203 110)"/><line x1="194" y1="114" x2="212" y2="110" stroke="#B9824A" stroke-width="3" stroke-linecap="round" transform="rotate(-18 203 110)"/><rect x="210" y="98" width="26" height="46" rx="10" fill="#E8C08A" transform="rotate(-18 223 120)"/><line x1="214" y1="110" x2="232" y2="106" stroke="#B9824A" stroke-width="3" stroke-linecap="round" transform="rotate(-18 223 120)"/><line x1="214" y1="124" x2="232" y2="120" stroke="#B9824A" stroke-width="3" stroke-linecap="round" transform="rotate(-18 223 120)"/><rect x="230" y="88" width="26" height="46" rx="10" fill="#E8C08A" transform="rotate(-18 243 110)"/><line x1="234" y1="100" x2="252" y2="96" stroke="#B9824A" stroke-width="3" stroke-linecap="round" transform="rotate(-18 243 110)"/><line x1="234" y1="114" x2="252" y2="110" stroke="#B9824A" stroke-width="3" stroke-linecap="round" transform="rotate(-18 243 110)"/><rect x="250" y="98" width="26" height="46" rx="10" fill="#E8C08A" transform="rotate(-18 263 120)"/><line x1="254" y1="110" x2="272" y2="106" stroke="#B9824A" stroke-width="3" stroke-linecap="round" transform="rotate(-18 263 120)"/><line x1="254" y1="124" x2="272" y2="120" stroke="#B9824A" stroke-width="3" stroke-linecap="round" transform="rotate(-18 263 120)"/><rect x="270" y="88" width="26" height="46" rx="10" fill="#E8C08A" transform="rotate(-18 283 110)"/><line x1="274" y1="100" x2="292" y2="96" stroke="#B9824A" stroke-width="3" stroke-linecap="round" transform="rotate(-18 283 110)"/><line x1="274" y1="114" x2="292" y2="110" stroke="#B9824A" stroke-width="3" stroke-linecap="round" transform="rotate(-18 283 110)"/><circle cx="241.2" cy="193.9" r="10" fill="#E2483A"/><circle cx="238.2" cy="190.9" r="3" fill="#F49283"/><circle cx="246.6" cy="187.0" r="10" fill="#E2483A"/><circle cx="243.6" cy="184.0" r="3" fill="#F49283"/><circle cx="233.9" cy="192.6" r="10" fill="#E2483A"/><circle cx="230.9" cy="189.6" r="3" fill="#F49283"/><circle cx="273.3" cy="195.4" r="10" fill="#E2483A"/><circle cx="270.3" cy="192.4" r="3" fill="#F49283"/><circle cx="245.0" cy="186.6" r="10" fill="#E2483A"/><circle cx="242.0" cy="183.6" r="3" fill="#F49283"/></g>
  <g transform="translate(330 248) scale(0.085)" opacity="0.9">
    <path d="M95 400 C113.3 369.2 167.5 224.2 205 215 C242.5 205.8 283.3 355.0 320 345 C356.7 335.0 395.8 145.0 425 155 C454.2 165.0 483.3 363.3 495 405" fill="none" stroke="#1B1B44" stroke-width="44" stroke-linecap="round" stroke-linejoin="round"/>
    <circle cx="425" cy="78" r="34" fill="#F2A41E"/></g>
</svg>
