<svg xmlns="http://www.w3.org/2000/svg" viewBox="0 0 400 300" role="img" aria-label="Chicken stir fry">
  <defs>
    <radialGradient id="bg" cx="40%" cy="30%" r="80%"><stop offset="0" stop-color="#FFFCF6"/><stop offset="1" stop-color="#F1E5D9"/></radialGradient>
    <radialGradient id="shine" cx="35%" cy="30%" r="70%"><stop offset="0" stop-color="#FFFFFF" stop-opacity="0.35"/><stop offset="1" stop-color="#FFFFFF" stop-opacity="0"/></radialGradient>
  </defs>
  <rect width="400" height="300" rx="28" fill="url(#bg)"/>
  <circle cx="71" cy="268" r="5" fill="#F2A41E" opacity="0.5"/>
  <circle cx="344" cy="32" r="4" fill="#1B1B44" opacity="0.15"/>
  <ellipse cx="200" cy="162" rx="146" ry="110" fill="#000" opacity="0.07"/><circle cx="200" cy="150" r="135" fill="#FFFFFF"/><circle cx="200" cy="150" r="135" fill="none" stroke="#E7E1D6" stroke-width="3"/><circle cx="200" cy="150" r="110" fill="none" stroke="#F1ECE3" stroke-width="2"/>
  <g><ellipse cx="210" cy="156" rx="86" ry="70" fill="#7A4320" opacity="0.85"/><ellipse cx="154" cy="176" rx="58" ry="44" fill="#FBF8F1"/><ellipse cx="125.8" cy="195.3" rx="3.2" ry="1.4" fill="#E9E1CF" transform="rotate(109 125.8 195.3)"/><ellipse cx="111.3" cy="162.5" rx="3.2" ry="1.4" fill="#E9E1CF" transform="rotate(90 111.3 162.5)"/><ellipse cx="146.4" cy="206.4" rx="3.2" ry="1.4" fill="#E9E1CF" transform="rotate(153 146.4 206.4)"/><ellipse cx="163.2" cy="161.3" rx="3.2" ry="1.4" fill="#E9E1CF" transform="rotate(125 163.2 161.3)"/><ellipse cx="152.6" cy="164.6" rx="3.2" ry="1.4" fill="#E9E1CF" transform="rotate(76 152.6 164.6)"/><ellipse cx="134.0" cy="145.1" rx="3.2" ry="1.4" fill="#E9E1CF" transform="rotate(166 134.0 145.1)"/><ellipse cx="124.1" cy="198.7" rx="3.2" ry="1.4" fill="#E9E1CF" transform="rotate(136 124.1 198.7)"/><ellipse cx="136.9" cy="168.4" rx="3.2" ry="1.4" fill="#E9E1CF" transform="rotate(98 136.9 168.4)"/><ellipse cx="134.2" cy="162.3" rx="3.2" ry="1.4" fill="#E9E1CF" transform="rotate(59 134.2 162.3)"/><ellipse cx="134.3" cy="193.3" rx="3.2" ry="1.4" fill="#E9E1CF" transform="rotate(35 134.3 193.3)"/><ellipse cx="132.0" cy="184.5" rx="3.2" ry="1.4" fill="#E9E1CF" transform="rotate(124 132.0 184.5)"/><ellipse cx="154.8" cy="140.4" rx="3.2" ry="1.4" fill="#E9E1CF" transform="rotate(119 154.8 140.4)"/><ellipse cx="194.1" cy="153.9" rx="3.2" ry="1.4" fill="#E9E1CF" transform="rotate(80 194.1 153.9)"/><ellipse cx="197.0" cy="171.7" rx="3.2" ry="1.4" fill="#E9E1CF" transform="rotate(19 197.0 171.7)"/><ellipse cx="159.7" cy="190.3" rx="3.2" ry="1.4" fill="#E9E1CF" transform="rotate(14 159.7 190.3)"/><ellipse cx="118.7" cy="165.4" rx="3.2" ry="1.4" fill="#E9E1CF" transform="rotate(131 118.7 165.4)"/><ellipse cx="162.3" cy="140.4" rx="3.2" ry="1.4" fill="#E9E1CF" transform="rotate(161 162.3 140.4)"/><ellipse cx="162.2" cy="162.3" rx="3.2" ry="1.4" fill="#E9E1CF" transform="rotate(144 162.2 162.3)"/><ellipse cx="129.1" cy="176.4" rx="3.2" ry="1.4" fill="#E9E1CF" transform="rotate(27 129.1 176.4)"/><ellipse cx="165.6" cy="195.7" rx="3.2" ry="1.4" fill="#E9E1CF" transform="rotate(12 165.6 195.7)"/><ellipse cx="154.7" cy="175.5" rx="3.2" ry="1.4" fill="#E9E1CF" transform="rotate(81 154.7 175.5)"/><ellipse cx="133.2" cy="145.7" rx="3.2" ry="1.4" fill="#E9E1CF" transform="rotate(119 133.2 145.7)"/><ellipse cx="193.3" cy="159.9" rx="3.2" ry="1.4" fill="#E9E1CF" transform="rotate(90 193.3 159.9)"/><ellipse cx="157.0" cy="139.8" rx="3.2" ry="1.4" fill="#E9E1CF" transform="rotate(17 157.0 139.8)"/><ellipse cx="155.9" cy="211.4" rx="3.2" ry="1.4" fill="#E9E1CF" transform="rotate(173 155.9 211.4)"/><ellipse cx="141.6" cy="193.8" rx="3.2" ry="1.4" fill="#E9E1CF" transform="rotate(108 141.6 193.8)"/><ellipse cx="173.3" cy="161.6" rx="3.2" ry="1.4" fill="#E9E1CF" transform="rotate(147 173.3 161.6)"/><ellipse cx="140.2" cy="193.7" rx="3.2" ry="1.4" fill="#E9E1CF" transform="rotate(29 140.2 193.7)"/><ellipse cx="122.5" cy="160.2" rx="3.2" ry="1.4" fill="#E9E1CF" transform="rotate(134 122.5 160.2)"/><ellipse cx="196.0" cy="184.7" rx="3.2" ry="1.4" fill="#E9E1CF" transform="rotate(24 196.0 184.7)"/><ellipse cx="119.2" cy="204.0" rx="3.2" ry="1.4" fill="#E9E1CF" transform="rotate(166 119.2 204.0)"/><ellipse cx="160.5" cy="209.2" rx="3.2" ry="1.4" fill="#E9E1CF" transform="rotate(100 160.5 209.2)"/><ellipse cx="108.4" cy="183.7" rx="3.2" ry="1.4" fill="#E9E1CF" transform="rotate(131 108.4 183.7)"/><ellipse cx="167.6" cy="197.5" rx="3.2" ry="1.4" fill="#E9E1CF" transform="rotate(63 167.6 197.5)"/><ellipse cx="152.9" cy="193.9" rx="3.2" ry="1.4" fill="#E9E1CF" transform="rotate(65 152.9 193.9)"/><ellipse cx="178.0" cy="147.7" rx="3.2" ry="1.4" fill="#E9E1CF" transform="rotate(134 178.0 147.7)"/><ellipse cx="198.1" cy="179.3" rx="3.2" ry="1.4" fill="#E9E1CF" transform="rotate(162 198.1 179.3)"/><ellipse cx="108.2" cy="158.0" rx="3.2" ry="1.4" fill="#E9E1CF" transform="rotate(85 108.2 158.0)"/><ellipse cx="121.5" cy="158.1" rx="3.2" ry="1.4" fill="#E9E1CF" transform="rotate(103 121.5 158.1)"/><ellipse cx="153.6" cy="199.6" rx="3.2" ry="1.4" fill="#E9E1CF" transform="rotate(83 153.6 199.6)"/><ellipse cx="109.1" cy="157.0" rx="3.2" ry="1.4" fill="#E9E1CF" transform="rotate(4 109.1 157.0)"/><ellipse cx="148.1" cy="152.3" rx="3.2" ry="1.4" fill="#E9E1CF" transform="rotate(172 148.1 152.3)"/><ellipse cx="145.4" cy="175.9" rx="3.2" ry="1.4" fill="#E9E1CF" transform="rotate(119 145.4 175.9)"/><ellipse cx="136.9" cy="207.9" rx="3.2" ry="1.4" fill="#E9E1CF" transform="rotate(168 136.9 207.9)"/><ellipse cx="134.3" cy="163.9" rx="3.2" ry="1.4" fill="#E9E1CF" transform="rotate(160 134.3 163.9)"/><ellipse cx="145.9" cy="164.5" rx="3.2" ry="1.4" fill="#E9E1CF" transform="rotate(89 145.9 164.5)"/><ellipse cx="174.1" cy="149.7" rx="3.2" ry="1.4" fill="#E9E1CF" transform="rotate(43 174.1 149.7)"/><ellipse cx="139.0" cy="140.0" rx="3.2" ry="1.4" fill="#E9E1CF" transform="rotate(47 139.0 140.0)"/><ellipse cx="176.0" cy="209.1" rx="3.2" ry="1.4" fill="#E9E1CF" transform="rotate(91 176.0 209.1)"/><ellipse cx="130.5" cy="199.1" rx="3.2" ry="1.4" fill="#E9E1CF" transform="rotate(57 130.5 199.1)"/><ellipse cx="168.0" cy="174.8" rx="3.2" ry="1.4" fill="#E9E1CF" transform="rotate(28 168.0 174.8)"/><ellipse cx="148.3" cy="203.8" rx="3.2" ry="1.4" fill="#E9E1CF" transform="rotate(98 148.3 203.8)"/><ellipse cx="137.0" cy="180.4" rx="3.2" ry="1.4" fill="#E9E1CF" transform="rotate(159 137.0 180.4)"/><ellipse cx="173.9" cy="190.6" rx="3.2" ry="1.4" fill="#E9E1CF" transform="rotate(37 173.9 190.6)"/><ellipse cx="196.2" cy="154.0" rx="3.2" ry="1.4" fill="#E9E1CF" transform="rotate(111 196.2 154.0)"/><ellipse cx="179.3" cy="196.7" rx="3.2" ry="1.4" fill="#E9E1CF" transform="rotate(172 179.3 196.7)"/><ellipse cx="146.4" cy="164.1" rx="3.2" ry="1.4" fill="#E9E1CF" transform="rotate(35 146.4 164.1)"/><ellipse cx="166.8" cy="180.5" rx="3.2" ry="1.4" fill="#E9E1CF" transform="rotate(61 166.8 180.5)"/><ellipse cx="179.5" cy="159.7" rx="3.2" ry="1.4" fill="#E9E1CF" transform="rotate(121 179.5 159.7)"/><ellipse cx="136.2" cy="186.7" rx="3.2" ry="1.4" fill="#E9E1CF" transform="rotate(107 136.2 186.7)"/><ellipse cx="123.8" cy="170.4" rx="3.2" ry="1.4" fill="#E9E1CF" transform="rotate(121 123.8 170.4)"/><ellipse cx="156.4" cy="204.2" rx="3.2" ry="1.4" fill="#E9E1CF" transform="rotate(115 156.4 204.2)"/><ellipse cx="196.1" cy="164.8" rx="3.2" ry="1.4" fill="#E9E1CF" transform="rotate(85 196.1 164.8)"/><ellipse cx="127.5" cy="156.1" rx="3.2" ry="1.4" fill="#E9E1CF" transform="rotate(88 127.5 156.1)"/><ellipse cx="127.1" cy="201.0" rx="3.2" ry="1.4" fill="#E9E1CF" transform="rotate(143 127.1 201.0)"/><ellipse cx="129.9" cy="169.8" rx="3.2" ry="1.4" fill="#E9E1CF" transform="rotate(178 129.9 169.8)"/><ellipse cx="152.0" cy="191.9" rx="3.2" ry="1.4" fill="#E9E1CF" transform="rotate(57 152.0 191.9)"/><ellipse cx="184.9" cy="173.3" rx="3.2" ry="1.4" fill="#E9E1CF" transform="rotate(66 184.9 173.3)"/><ellipse cx="196.1" cy="157.5" rx="3.2" ry="1.4" fill="#E9E1CF" transform="rotate(128 196.1 157.5)"/><ellipse cx="167.1" cy="177.3" rx="3.2" ry="1.4" fill="#E9E1CF" transform="rotate(168 167.1 177.3)"/><rect x="190" y="88" width="26" height="46" rx="10" fill="#E8C08A" transform="rotate(-18 203 110)"/><line x1="194" y1="100" x2="212" y2="96" stroke="#B9824A" stroke-width="3" stroke-linecap="round" transform="rotate(-18 203 110)"/><line x1="194" y1="114" x2="212" y2="110" stroke="#B9824A" stroke-width="3" stroke-linecap="round" transform="rotate(-18 203 110)"/><rect x="210" y="98" width="26" height="46" rx="10" fill="#E8C08A" transform="rotate(-18 223 120)"/><line x1="214" y1="110" x2="232" y2="106" stroke="#B9824A" stroke-width="3" stroke-linecap="round" transform="rotate(-18 223 120)"/><line x1="214" y1="124" x2="232" y2="120" stroke="#B9824A" stroke-width="3" stroke-linecap="round" transform="rotate(-18 223 120)"/><rect x="230" y="88" width="26" height="46" rx="10" fill="#E8C08A" transform="rotate(-18 243 110)"/><line x1="234" y1="100" x2="252" y2="96" stroke="#B9824A" stroke-width="3" stroke-linecap="round" transform="rotate(-18 243 110)"/><line x1="234" y1="114" x2="252" y2="110" stroke="#B9824A" stroke-width="3" stroke-linecap="round" transform="rotate(-18 243 110)"/><rect x="250" y="98" width="26" height="46" rx="10" fill="#E8C08A" transform="rotate(-18 263 120)"/><line x1="254" y1="110" x2="272" y2="106" stroke="#B9824A" stroke-width="3" stroke-linecap="round" transform="rotate(-18 263 120)"/><line x1="254" y1="124" x2="272" y2="120" stroke="#B9824A" stroke-width="3" stroke-linecap="round" transform="rotate(-18 263 120)"/><rect x="270" y="88" width="26" height="46" rx="10" fill="#E8C08A" transform="rotate(-18 283 110)"/><line x1="274" y1="100" x2="292" y2="96" stroke="#B9824A" stroke-width="3" stroke-linecap="round" transform="rotate(-18 283 110)"/><line x1="274" y1="114" x2="292" y2="110" stroke="#B9824A" stroke-width="3" stroke-linecap="round" transform="rotate(-18 283 110)"/><rect x="227.31034584064037" y="182" width="6" height="12" fill="#8DB25C"/><circle cx="224.31034584064037" cy="182" r="8" fill="#3F7F35"/><circle cx="236.31034584064037" cy="182" r="8" fill="#3F7F35"/><circle cx="230.31034584064037" cy="176" r="9" fill="#4E9440"/><rect x="253.8578872042708" y="182" width="6" height="12" fill="#8DB25C"/><circle cx="250.8578872042708" cy="182" r="8" fill="#3F7F35"/><circle cx="262.8578872042708" cy="182" r="8" fill="#3F7F35"/><circle cx="256.8578872042708" cy="176" r="9" fill="#4E9440"/><rect x="283.41471017198637" y="182" width="6" height="12" fill="#8DB25C"/><circle cx="280.41471017198637" cy="182" r="8" fill="#3F7F35"/><circle cx="292.41471017198637" cy="182" r="8" fill="#3F7F35"/><circle cx="286.41471017198637" cy="176" r="9" fill="#4E9440"/><rect x="231.73248979542404" y="206" width="6" height="12" fill="#8DB25C"/><circle cx="228.73248979542404" cy="206" r="8" fill="#3F7F35"/><circle cx="240.73248979542404" cy="206" r="8" fill="#3F7F35"/><circle cx="234.73248979542404" cy="200" r="9" fill="#4E9440"/><rect x="253.48338032141328" y="206" width="6" height="12" fill="#8DB25C"/><circle cx="250.48338032141328" cy="206" r="8" fill="#3F7F35"/><circle cx="262.4833803214133" cy="206" r="8" fill="#3F7F35"/><circle cx="256.4833803214133" cy="200" r="9" fill="#4E9440"/><rect x="148.5" y="104.5" width="30" height="7" rx="3.5" fill="#D8432F" transform="rotate(47 148.5 104.5)"/><rect x="142.7" y="114.5" width="30" height="7" rx="3.5" fill="#D8432F" transform="rotate(124 142.7 114.5)"/><rect x="173.8" y="99.1" width="30" height="7" rx="3.5" fill="#D8432F" transform="rotate(9 173.8 99.1)"/><rect x="121.9" y="96.5" width="30" height="7" rx="3.5" fill="#D8432F" transform="rotate(39 121.9 96.5)"/><rect x="130.2" y="116.1" width="28" height="7" rx="3.5" fill="#E8B02F" transform="rotate(61 130.2 116.1)"/><rect x="162.0" y="112.9" width="28" height="7" rx="3.5" fill="#E8B02F" transform="rotate(13 162.0 112.9)"/><rect x="142.0" y="99.0" width="28" height="7" rx="3.5" fill="#5B9A3C" transform="rotate(140 142.0 99.0)"/><rect x="142.3" y="112.3" width="28" height="7" rx="3.5" fill="#5B9A3C" transform="rotate(79 142.3 112.3)"/><circle cx="282.3" cy="149.9" r="3.6" fill="#F2C230"/><circle cx="239.6" cy="156.4" r="3.6" fill="#F2C230"/><circle cx="271.6" cy="144.6" r="3.6" fill="#F2C230"/><circle cx="241.3" cy="135.2" r="3.6" fill="#F2C230"/><circle cx="282.4" cy="148.7" r="3.6" fill="#F2C230"/><circle cx="263.4" cy="157.0" r="3.6" fill="#F2C230"/><circle cx="263.0" cy="126.5" r="3.6" fill="#F2C230"/><circle cx="243.0" cy="148.8" r="3.6" fill="#F2C230"/><circle cx="274.0" cy="151.3" r="3.6" fill="#F2C230"/><circle cx="262.6" cy="164.4" r="3.6" fill="#F2C230"/><circle cx="259.2" cy="137.8" r="3.6" fill="#F2C230"/><circle cx="260.1" cy="140.6" r="3.6" fill="#F2C230"/><circle cx="224.1" cy="156.2" r="3.6" fill="#F2C230"/><circle cx="232.6" cy="152.9" r="3.6" fill="#F2C230"/><circle cx="225.3" cy="132.6" r="3.6" fill="#F2C230"/><circle cx="238.6" cy="155.3" r="3.6" fill="#F2C230"/><circle cx="253.1" cy="160.0" r="3.6" fill="#F2C230"/><circle cx="269.5" cy="134.9" r="3.6" fill="#F2C230"/><circle cx="235.9" cy="169.4" r="3.6" fill="#F2C230"/><circle cx="224.1" cy="147.3" r="3.6" fill="#F2C230"/><circle cx="256.9" cy="157.2" r="3.6" fill="#F2C230"/><circle cx="240.5" cy="134.2" r="3.6" fill="#F2C230"/><circle cx="273.9" cy="150.5" r="3.6" fill="#F2C230"/><circle cx="268.9" cy="154.8" r="3.6" fill="#F2C230"/><circle cx="242.0" cy="141.9" r="3.6" fill="#F2C230"/><circle cx="230.6" cy="149.0" r="3.6" fill="#F2C230"/><circle cx="243.2" cy="165.5" r="3.6" fill="#F2C230"/><circle cx="229.1" cy="137.1" r="3.6" fill="#F2C230"/><circle cx="231.2" cy="141.2" r="3.6" fill="#F2C230"/><circle cx="279.7" cy="158.7" r="3.6" fill="#F2C230"/></g>
  <g transform="translate(330 248) scale(0.085)" opacity="0.9">
    <path d="M95 400 C113.3 369.2 167.5 224.2 205 215 C242.5 205.8 283.3 355.0 320 345 C356.7 335.0 395.8 145.0 425 155 C454.2 165.0 483.3 363.3 495 405" fill="none" stroke="#1B1B44" stroke-width="44" stroke-linecap="round" stroke-linejoin="round"/>
    <circle cx="425" cy="78" r="34" fill="#F2A41E"/></g>
</svg>
