<svg xmlns="http://www.w3.org/2000/svg" viewBox="0 0 400 300" role="img" aria-label="Egg roll in a bowl">
  <defs>
    <radialGradient id="bg" cx="40%" cy="30%" r="80%"><stop offset="0" stop-color="#FFFCF6"/><stop offset="1" stop-color="#F1E5D9"/></radialGradient>
    <radialGradient id="shine" cx="35%" cy="30%" r="70%"><stop offset="0" stop-color="#FFFFFF" stop-opacity="0.35"/><stop offset="1" stop-color="#FFFFFF" stop-opacity="0"/></radialGradient>
  </defs>
  <rect width="400" height="300" rx="28" fill="url(#bg)"/>
  <circle cx="63" cy="270" r="5" fill="#F2A41E" opacity="0.5"/>
  <circle cx="344" cy="46" r="4" fill="#1B1B44" opacity="0.15"/>
  <ellipse cx="200" cy="162" rx="146" ry="110" fill="#000" opacity="0.07"/><circle cx="200" cy="150" r="135" fill="#FFFFFF"/><circle cx="200" cy="150" r="135" fill="none" stroke="#E7E1D6" stroke-width="3"/><circle cx="200" cy="150" r="110" fill="none" stroke="#F1ECE3" stroke-width="2"/>
  <g><ellipse cx="210" cy="156" rx="86" ry="70" fill="#7A4320" opacity="0.85"/><ellipse cx="154" cy="176" rx="58" ry="44" fill="#FBF8F1"/><ellipse cx="116.8" cy="189.1" rx="3.2" ry="1.4" fill="#E9E1CF" transform="rotate(177 116.8 189.1)"/><ellipse cx="164.1" cy="142.8" rx="3.2" ry="1.4" fill="#E9E1CF" transform="rotate(73 164.1 142.8)"/><ellipse cx="159.4" cy="166.9" rx="3.2" ry="1.4" fill="#E9E1CF" transform="rotate(173 159.4 166.9)"/><ellipse cx="183.3" cy="204.8" rx="3.2" ry="1.4" fill="#E9E1CF" transform="rotate(41 183.3 204.8)"/><ellipse cx="195.2" cy="162.2" rx="3.2" ry="1.4" fill="#E9E1CF" transform="rotate(125 195.2 162.2)"/><ellipse cx="140.3" cy="186.8" rx="3.2" ry="1.4" fill="#E9E1CF" transform="rotate(75 140.3 186.8)"/><ellipse cx="119.3" cy="159.7" rx="3.2" ry="1.4" fill="#E9E1CF" transform="rotate(58 119.3 159.7)"/><ellipse cx="150.0" cy="169.5" rx="3.2" ry="1.4" fill="#E9E1CF" transform="rotate(6 150.0 169.5)"/><ellipse cx="131.4" cy="198.6" rx="3.2" ry="1.4" fill="#E9E1CF" transform="rotate(101 131.4 198.6)"/><ellipse cx="146.8" cy="200.4" rx="3.2" ry="1.4" fill="#E9E1CF" transform="rotate(172 146.8 200.4)"/><ellipse cx="114.0" cy="164.9" rx="3.2" ry="1.4" fill="#E9E1CF" transform="rotate(167 114.0 164.9)"/><ellipse cx="185.8" cy="162.9" rx="3.2" ry="1.4" fill="#E9E1CF" transform="rotate(144 185.8 162.9)"/><ellipse cx="146.0" cy="193.2" rx="3.2" ry="1.4" fill="#E9E1CF" transform="rotate(31 146.0 193.2)"/><ellipse cx="181.2" cy="188.4" rx="3.2" ry="1.4" fill="#E9E1CF" transform="rotate(42 181.2 188.4)"/><ellipse cx="201.3" cy="186.5" rx="3.2" ry="1.4" fill="#E9E1CF" transform="rotate(22 201.3 186.5)"/><ellipse cx="142.9" cy="147.0" rx="3.2" ry="1.4" fill="#E9E1CF" transform="rotate(73 142.9 147.0)"/><ellipse cx="120.7" cy="165.9" rx="3.2" ry="1.4" fill="#E9E1CF" transform="rotate(29 120.7 165.9)"/><ellipse cx="188.6" cy="193.9" rx="3.2" ry="1.4" fill="#E9E1CF" transform="rotate(45 188.6 193.9)"/><ellipse cx="169.4" cy="145.2" rx="3.2" ry="1.4" fill="#E9E1CF" transform="rotate(82 169.4 145.2)"/><ellipse cx="152.2" cy="191.1" rx="3.2" ry="1.4" fill="#E9E1CF" transform="rotate(20 152.2 191.1)"/><ellipse cx="184.8" cy="203.4" rx="3.2" ry="1.4" fill="#E9E1CF" transform="rotate(7 184.8 203.4)"/><ellipse cx="188.9" cy="187.5" rx="3.2" ry="1.4" fill="#E9E1CF" transform="rotate(89 188.9 187.5)"/><ellipse cx="143.8" cy="192.1" rx="3.2" ry="1.4" fill="#E9E1CF" transform="rotate(31 143.8 192.1)"/><ellipse cx="118.1" cy="162.5" rx="3.2" ry="1.4" fill="#E9E1CF" transform="rotate(60 118.1 162.5)"/><ellipse cx="117.0" cy="168.1" rx="3.2" ry="1.4" fill="#E9E1CF" transform="rotate(12 117.0 168.1)"/><ellipse cx="150.8" cy="167.4" rx="3.2" ry="1.4" fill="#E9E1CF" transform="rotate(114 150.8 167.4)"/><ellipse cx="191.0" cy="172.4" rx="3.2" ry="1.4" fill="#E9E1CF" transform="rotate(3 191.0 172.4)"/><ellipse cx="124.6" cy="166.5" rx="3.2" ry="1.4" fill="#E9E1CF" transform="rotate(106 124.6 166.5)"/><ellipse cx="143.4" cy="161.1" rx="3.2" ry="1.4" fill="#E9E1CF" transform="rotate(80 143.4 161.1)"/><ellipse cx="125.0" cy="155.1" rx="3.2" ry="1.4" fill="#E9E1CF" transform="rotate(28 125.0 155.1)"/><ellipse cx="188.0" cy="165.0" rx="3.2" ry="1.4" fill="#E9E1CF" transform="rotate(47 188.0 165.0)"/><ellipse cx="185.1" cy="196.9" rx="3.2" ry="1.4" fill="#E9E1CF" transform="rotate(108 185.1 196.9)"/><ellipse cx="200.8" cy="169.4" rx="3.2" ry="1.4" fill="#E9E1CF" transform="rotate(143 200.8 169.4)"/><ellipse cx="132.4" cy="157.3" rx="3.2" ry="1.4" fill="#E9E1CF" transform="rotate(19 132.4 157.3)"/><ellipse cx="173.4" cy="160.2" rx="3.2" ry="1.4" fill="#E9E1CF" transform="rotate(41 173.4 160.2)"/><ellipse cx="116.8" cy="151.6" rx="3.2" ry="1.4" fill="#E9E1CF" transform="rotate(136 116.8 151.6)"/><ellipse cx="140.1" cy="172.9" rx="3.2" ry="1.4" fill="#E9E1CF" transform="rotate(85 140.1 172.9)"/><ellipse cx="166.4" cy="144.3" rx="3.2" ry="1.4" fill="#E9E1CF" transform="rotate(178 166.4 144.3)"/><ellipse cx="186.9" cy="175.1" rx="3.2" ry="1.4" fill="#E9E1CF" transform="rotate(103 186.9 175.1)"/><ellipse cx="136.4" cy="164.3" rx="3.2" ry="1.4" fill="#E9E1CF" transform="rotate(90 136.4 164.3)"/><ellipse cx="130.1" cy="194.7" rx="3.2" ry="1.4" fill="#E9E1CF" transform="rotate(55 130.1 194.7)"/><ellipse cx="137.5" cy="149.2" rx="3.2" ry="1.4" fill="#E9E1CF" transform="rotate(28 137.5 149.2)"/><ellipse cx="179.7" cy="169.6" rx="3.2" ry="1.4" fill="#E9E1CF" transform="rotate(27 179.7 169.6)"/><ellipse cx="124.3" cy="165.3" rx="3.2" ry="1.4" fill="#E9E1CF" transform="rotate(135 124.3 165.3)"/><ellipse cx="176.9" cy="163.5" rx="3.2" ry="1.4" fill="#E9E1CF" transform="rotate(108 176.9 163.5)"/><ellipse cx="131.0" cy="208.8" rx="3.2" ry="1.4" fill="#E9E1CF" transform="rotate(62 131.0 208.8)"/><ellipse cx="145.9" cy="175.3" rx="3.2" ry="1.4" fill="#E9E1CF" transform="rotate(57 145.9 175.3)"/><ellipse cx="141.1" cy="150.9" rx="3.2" ry="1.4" fill="#E9E1CF" transform="rotate(83 141.1 150.9)"/><ellipse cx="108.9" cy="194.8" rx="3.2" ry="1.4" fill="#E9E1CF" transform="rotate(34 108.9 194.8)"/><ellipse cx="167.7" cy="145.5" rx="3.2" ry="1.4" fill="#E9E1CF" transform="rotate(62 167.7 145.5)"/><ellipse cx="159.9" cy="203.2" rx="3.2" ry="1.4" fill="#E9E1CF" transform="rotate(40 159.9 203.2)"/><ellipse cx="143.5" cy="190.4" rx="3.2" ry="1.4" fill="#E9E1CF" transform="rotate(175 143.5 190.4)"/><ellipse cx="171.0" cy="143.8" rx="3.2" ry="1.4" fill="#E9E1CF" transform="rotate(89 171.0 143.8)"/><ellipse cx="123.6" cy="156.4" rx="3.2" ry="1.4" fill="#E9E1CF" transform="rotate(105 123.6 156.4)"/><ellipse cx="106.8" cy="174.3" rx="3.2" ry="1.4" fill="#E9E1CF" transform="rotate(23 106.8 174.3)"/><ellipse cx="102.8" cy="172.7" rx="3.2" ry="1.4" fill="#E9E1CF" transform="rotate(22 102.8 172.7)"/><ellipse cx="196.1" cy="164.4" rx="3.2" ry="1.4" fill="#E9E1CF" transform="rotate(117 196.1 164.4)"/><ellipse cx="133.9" cy="169.2" rx="3.2" ry="1.4" fill="#E9E1CF" transform="rotate(12 133.9 169.2)"/><ellipse cx="156.9" cy="145.2" rx="3.2" ry="1.4" fill="#E9E1CF" transform="rotate(45 156.9 145.2)"/><ellipse cx="152.4" cy="162.0" rx="3.2" ry="1.4" fill="#E9E1CF" transform="rotate(21 152.4 162.0)"/><ellipse cx="130.8" cy="195.8" rx="3.2" ry="1.4" fill="#E9E1CF" transform="rotate(152 130.8 195.8)"/><ellipse cx="107.7" cy="184.9" rx="3.2" ry="1.4" fill="#E9E1CF" transform="rotate(69 107.7 184.9)"/><ellipse cx="189.0" cy="198.3" rx="3.2" ry="1.4" fill="#E9E1CF" transform="rotate(177 189.0 198.3)"/><ellipse cx="162.6" cy="161.7" rx="3.2" ry="1.4" fill="#E9E1CF" transform="rotate(132 162.6 161.7)"/><ellipse cx="191.0" cy="156.6" rx="3.2" ry="1.4" fill="#E9E1CF" transform="rotate(131 191.0 156.6)"/><ellipse cx="163.3" cy="153.9" rx="3.2" ry="1.4" fill="#E9E1CF" transform="rotate(113 163.3 153.9)"/><ellipse cx="165.2" cy="146.2" rx="3.2" ry="1.4" fill="#E9E1CF" transform="rotate(57 165.2 146.2)"/><ellipse cx="138.5" cy="142.7" rx="3.2" ry="1.4" fill="#E9E1CF" transform="rotate(66 138.5 142.7)"/><ellipse cx="127.6" cy="159.5" rx="3.2" ry="1.4" fill="#E9E1CF" transform="rotate(87 127.6 159.5)"/><ellipse cx="201.5" cy="177.7" rx="3.2" ry="1.4" fill="#E9E1CF" transform="rotate(175 201.5 177.7)"/><path d="M218.5 111.7 l 7 -3 l 4 6 l -6 5 l -7 -2 z" fill="#9A5636"/><path d="M251.0 119.6 l 7 -3 l 4 6 l -6 5 l -7 -2 z" fill="#7E4128"/><path d="M231.1 113.9 l 7 -3 l 4 6 l -6 5 l -7 -2 z" fill="#7E4128"/><path d="M224.3 104.5 l 7 -3 l 4 6 l -6 5 l -7 -2 z" fill="#9A5636"/><path d="M243.0 91.4 l 7 -3 l 4 6 l -6 5 l -7 -2 z" fill="#7E4128"/><path d="M234.3 99.0 l 7 -3 l 4 6 l -6 5 l -7 -2 z" fill="#7E4128"/><path d="M259.8 107.9 l 7 -3 l 4 6 l -6 5 l -7 -2 z" fill="#9A5636"/><path d="M241.2 110.2 l 7 -3 l 4 6 l -6 5 l -7 -2 z" fill="#7E4128"/><path d="M240.2 115.0 l 7 -3 l 4 6 l -6 5 l -7 -2 z" fill="#7E4128"/><path d="M249.3 115.0 l 7 -3 l 4 6 l -6 5 l -7 -2 z" fill="#9A5636"/><path d="M258.3 110.6 l 7 -3 l 4 6 l -6 5 l -7 -2 z" fill="#7E4128"/><path d="M212.5 89.2 l 7 -3 l 4 6 l -6 5 l -7 -2 z" fill="#7E4128"/><path d="M244.1 102.7 l 7 -3 l 4 6 l -6 5 l -7 -2 z" fill="#9A5636"/><path d="M238.6 92.4 l 7 -3 l 4 6 l -6 5 l -7 -2 z" fill="#7E4128"/><path d="M245.3 105.8 l 7 -3 l 4 6 l -6 5 l -7 -2 z" fill="#7E4128"/><path d="M239.7 102.3 l 7 -3 l 4 6 l -6 5 l -7 -2 z" fill="#9A5636"/><path d="M207.5 130.8 l 7 -3 l 4 6 l -6 5 l -7 -2 z" fill="#7E4128"/><path d="M203.7 112.2 l 7 -3 l 4 6 l -6 5 l -7 -2 z" fill="#7E4128"/><path d="M222.6 131.2 l 7 -3 l 4 6 l -6 5 l -7 -2 z" fill="#9A5636"/><path d="M244.4 91.8 l 7 -3 l 4 6 l -6 5 l -7 -2 z" fill="#7E4128"/><path d="M257.8 123.4 l 7 -3 l 4 6 l -6 5 l -7 -2 z" fill="#7E4128"/><path d="M234.3 122.0 l 7 -3 l 4 6 l -6 5 l -7 -2 z" fill="#9A5636"/><path d="M212.1 90.2 l 7 -3 l 4 6 l -6 5 l -7 -2 z" fill="#7E4128"/><path d="M220.4 140.7 l 7 -3 l 4 6 l -6 5 l -7 -2 z" fill="#7E4128"/><path d="M224.2 107.3 l 7 -3 l 4 6 l -6 5 l -7 -2 z" fill="#9A5636"/><path d="M252.1 96.8 l 7 -3 l 4 6 l -6 5 l -7 -2 z" fill="#7E4128"/><rect x="273.7" y="192.7" width="26" height="3" rx="1.5" fill="#9B6BB0" transform="rotate(14 273.7 192.7)"/><rect x="267.2" y="196.2" width="26" height="3" rx="1.5" fill="#9B6BB0" transform="rotate(24 267.2 196.2)"/><rect x="265.7" y="201.6" width="26" height="3" rx="1.5" fill="#9B6BB0" transform="rotate(64 265.7 201.6)"/><rect x="229.0" y="192.3" width="26" height="3" rx="1.5" fill="#9B6BB0" transform="rotate(17 229.0 192.3)"/><rect x="266.9" y="205.3" width="26" height="3" rx="1.5" fill="#9B6BB0" transform="rotate(46 266.9 205.3)"/><rect x="267.4" y="203.1" width="26" height="3" rx="1.5" fill="#9B6BB0" transform="rotate(6 267.4 203.1)"/><rect x="258.0" y="207.9" width="26" height="3" rx="1.5" fill="#9B6BB0" transform="rotate(17 258.0 207.9)"/><rect x="241.0" y="210.4" width="26" height="3" rx="1.5" fill="#9B6BB0" transform="rotate(49 241.0 210.4)"/><rect x="257.2" y="204.7" width="26" height="3" rx="1.5" fill="#9B6BB0" transform="rotate(41 257.2 204.7)"/><rect x="282.1" y="210.8" width="26" height="3" rx="1.5" fill="#9B6BB0" transform="rotate(20 282.1 210.8)"/><rect x="269.0" y="203.5" width="26" height="3" rx="1.5" fill="#CFE0A6" transform="rotate(49 269.0 203.5)"/><rect x="248.2" y="209.6" width="26" height="3" rx="1.5" fill="#CFE0A6" transform="rotate(102 248.2 209.6)"/><rect x="282.9" y="188.9" width="26" height="3" rx="1.5" fill="#CFE0A6" transform="rotate(123 282.9 188.9)"/><rect x="254.5" y="207.5" width="26" height="3" rx="1.5" fill="#CFE0A6" transform="rotate(152 254.5 207.5)"/><rect x="247.0" y="184.6" width="26" height="3" rx="1.5" fill="#CFE0A6" transform="rotate(52 247.0 184.6)"/><rect x="249.4" y="186.7" width="26" height="3" rx="1.5" fill="#CFE0A6" transform="rotate(126 249.4 186.7)"/><rect x="244.1" y="179.4" width="26" height="3" rx="1.5" fill="#CFE0A6" transform="rotate(87 244.1 179.4)"/><rect x="267.5" y="211.3" width="26" height="3" rx="1.5" fill="#CFE0A6" transform="rotate(57 267.5 211.3)"/></g>
  <g transform="translate(330 248) scale(0.085)" opacity="0.9">
    <path d="M95 400 C113.3 369.2 167.5 224.2 205 215 C242.5 205.8 283.3 355.0 320 345 C356.7 335.0 395.8 145.0 425 155 C454.2 165.0 483.3 363.3 495 405" fill="none" stroke="#1B1B44" stroke-width="44" stroke-linecap="round" stroke-linejoin="round"/>
    <circle cx="425" cy="78" r="34" fill="#F2A41E"/></g>
</svg>
