<svg xmlns="http://www.w3.org/2000/svg" viewBox="0 0 400 300" role="img" aria-label="Jambalaya">
  <defs>
    <radialGradient id="bg" cx="40%" cy="30%" r="80%"><stop offset="0" stop-color="#FFFCF6"/><stop offset="1" stop-color="#F4DFD2"/></radialGradient>
    <radialGradient id="shine" cx="35%" cy="30%" r="70%"><stop offset="0" stop-color="#FFFFFF" stop-opacity="0.35"/><stop offset="1" stop-color="#FFFFFF" stop-opacity="0"/></radialGradient>
  </defs>
  <rect width="400" height="300" rx="28" fill="url(#bg)"/>
  <circle cx="55" cy="251" r="5" fill="#F2A41E" opacity="0.5"/>
  <circle cx="360" cy="45" r="4" fill="#1B1B44" opacity="0.15"/>
  <rect x="320" y="136" width="70" height="26" rx="12" fill="#2B2B2B"/><circle cx="200" cy="150" r="130" fill="#2F2F33"/><circle cx="200" cy="150" r="116" fill="#3A3A40"/>
  <g><ellipse cx="154" cy="176" rx="58" ry="44" fill="#FBF8F1"/><ellipse cx="181.0" cy="146.5" rx="3.2" ry="1.4" fill="#E9E1CF" transform="rotate(104 181.0 146.5)"/><ellipse cx="168.9" cy="176.8" rx="3.2" ry="1.4" fill="#E9E1CF" transform="rotate(89 168.9 176.8)"/><ellipse cx="153.3" cy="165.8" rx="3.2" ry="1.4" fill="#E9E1CF" transform="rotate(68 153.3 165.8)"/><ellipse cx="120.9" cy="165.1" rx="3.2" ry="1.4" fill="#E9E1CF" transform="rotate(57 120.9 165.1)"/><ellipse cx="127.8" cy="159.5" rx="3.2" ry="1.4" fill="#E9E1CF" transform="rotate(174 127.8 159.5)"/><ellipse cx="128.7" cy="183.8" rx="3.2" ry="1.4" fill="#E9E1CF" transform="rotate(170 128.7 183.8)"/><ellipse cx="156.2" cy="168.1" rx="3.2" ry="1.4" fill="#E9E1CF" transform="rotate(113 156.2 168.1)"/><ellipse cx="179.3" cy="191.5" rx="3.2" ry="1.4" fill="#E9E1CF" transform="rotate(29 179.3 191.5)"/><ellipse cx="186.5" cy="177.7" rx="3.2" ry="1.4" fill="#E9E1CF" transform="rotate(129 186.5 177.7)"/><ellipse cx="118.3" cy="187.7" rx="3.2" ry="1.4" fill="#E9E1CF" transform="rotate(138 118.3 187.7)"/><ellipse cx="148.3" cy="196.5" rx="3.2" ry="1.4" fill="#E9E1CF" transform="rotate(35 148.3 196.5)"/><ellipse cx="167.1" cy="212.0" rx="3.2" ry="1.4" fill="#E9E1CF" transform="rotate(57 167.1 212.0)"/><ellipse cx="172.1" cy="183.7" rx="3.2" ry="1.4" fill="#E9E1CF" transform="rotate(53 172.1 183.7)"/><ellipse cx="171.9" cy="191.6" rx="3.2" ry="1.4" fill="#E9E1CF" transform="rotate(76 171.9 191.6)"/><ellipse cx="160.7" cy="167.3" rx="3.2" ry="1.4" fill="#E9E1CF" transform="rotate(106 160.7 167.3)"/><ellipse cx="154.1" cy="191.3" rx="3.2" ry="1.4" fill="#E9E1CF" transform="rotate(144 154.1 191.3)"/><ellipse cx="178.1" cy="149.7" rx="3.2" ry="1.4" fill="#E9E1CF" transform="rotate(129 178.1 149.7)"/><ellipse cx="158.6" cy="165.4" rx="3.2" ry="1.4" fill="#E9E1CF" transform="rotate(154 158.6 165.4)"/><ellipse cx="132.9" cy="150.4" rx="3.2" ry="1.4" fill="#E9E1CF" transform="rotate(105 132.9 150.4)"/><ellipse cx="175.8" cy="169.0" rx="3.2" ry="1.4" fill="#E9E1CF" transform="rotate(59 175.8 169.0)"/><ellipse cx="183.8" cy="157.1" rx="3.2" ry="1.4" fill="#E9E1CF" transform="rotate(136 183.8 157.1)"/><ellipse cx="125.9" cy="202.0" rx="3.2" ry="1.4" fill="#E9E1CF" transform="rotate(150 125.9 202.0)"/><ellipse cx="137.9" cy="176.2" rx="3.2" ry="1.4" fill="#E9E1CF" transform="rotate(84 137.9 176.2)"/><ellipse cx="126.1" cy="177.0" rx="3.2" ry="1.4" fill="#E9E1CF" transform="rotate(141 126.1 177.0)"/><ellipse cx="123.5" cy="193.7" rx="3.2" ry="1.4" fill="#E9E1CF" transform="rotate(33 123.5 193.7)"/><ellipse cx="198.3" cy="176.1" rx="3.2" ry="1.4" fill="#E9E1CF" transform="rotate(12 198.3 176.1)"/><ellipse cx="145.6" cy="149.1" rx="3.2" ry="1.4" fill="#E9E1CF" transform="rotate(13 145.6 149.1)"/><ellipse cx="108.3" cy="165.3" rx="3.2" ry="1.4" fill="#E9E1CF" transform="rotate(9 108.3 165.3)"/><ellipse cx="173.0" cy="209.8" rx="3.2" ry="1.4" fill="#E9E1CF" transform="rotate(126 173.0 209.8)"/><ellipse cx="136.7" cy="198.7" rx="3.2" ry="1.4" fill="#E9E1CF" transform="rotate(96 136.7 198.7)"/><ellipse cx="148.5" cy="159.3" rx="3.2" ry="1.4" fill="#E9E1CF" transform="rotate(7 148.5 159.3)"/><ellipse cx="166.3" cy="149.8" rx="3.2" ry="1.4" fill="#E9E1CF" transform="rotate(88 166.3 149.8)"/><ellipse cx="118.2" cy="178.9" rx="3.2" ry="1.4" fill="#E9E1CF" transform="rotate(172 118.2 178.9)"/><ellipse cx="195.5" cy="159.1" rx="3.2" ry="1.4" fill="#E9E1CF" transform="rotate(40 195.5 159.1)"/><ellipse cx="169.6" cy="202.6" rx="3.2" ry="1.4" fill="#E9E1CF" transform="rotate(165 169.6 202.6)"/><ellipse cx="160.7" cy="138.4" rx="3.2" ry="1.4" fill="#E9E1CF" transform="rotate(127 160.7 138.4)"/><ellipse cx="160.0" cy="213.1" rx="3.2" ry="1.4" fill="#E9E1CF" transform="rotate(21 160.0 213.1)"/><ellipse cx="176.2" cy="177.0" rx="3.2" ry="1.4" fill="#E9E1CF" transform="rotate(100 176.2 177.0)"/><ellipse cx="166.0" cy="185.4" rx="3.2" ry="1.4" fill="#E9E1CF" transform="rotate(91 166.0 185.4)"/><ellipse cx="161.5" cy="173.8" rx="3.2" ry="1.4" fill="#E9E1CF" transform="rotate(166 161.5 173.8)"/><ellipse cx="129.8" cy="172.3" rx="3.2" ry="1.4" fill="#E9E1CF" transform="rotate(18 129.8 172.3)"/><ellipse cx="164.4" cy="168.3" rx="3.2" ry="1.4" fill="#E9E1CF" transform="rotate(18 164.4 168.3)"/><ellipse cx="141.2" cy="165.5" rx="3.2" ry="1.4" fill="#E9E1CF" transform="rotate(87 141.2 165.5)"/><ellipse cx="179.0" cy="207.9" rx="3.2" ry="1.4" fill="#E9E1CF" transform="rotate(21 179.0 207.9)"/><ellipse cx="158.5" cy="159.2" rx="3.2" ry="1.4" fill="#E9E1CF" transform="rotate(112 158.5 159.2)"/><ellipse cx="131.1" cy="178.1" rx="3.2" ry="1.4" fill="#E9E1CF" transform="rotate(27 131.1 178.1)"/><ellipse cx="124.2" cy="150.6" rx="3.2" ry="1.4" fill="#E9E1CF" transform="rotate(10 124.2 150.6)"/><ellipse cx="197.7" cy="161.5" rx="3.2" ry="1.4" fill="#E9E1CF" transform="rotate(131 197.7 161.5)"/><ellipse cx="127.3" cy="164.0" rx="3.2" ry="1.4" fill="#E9E1CF" transform="rotate(41 127.3 164.0)"/><ellipse cx="190.0" cy="150.0" rx="3.2" ry="1.4" fill="#E9E1CF" transform="rotate(21 190.0 150.0)"/><ellipse cx="198.4" cy="170.9" rx="3.2" ry="1.4" fill="#E9E1CF" transform="rotate(5 198.4 170.9)"/><ellipse cx="162.4" cy="154.3" rx="3.2" ry="1.4" fill="#E9E1CF" transform="rotate(157 162.4 154.3)"/><ellipse cx="111.6" cy="185.5" rx="3.2" ry="1.4" fill="#E9E1CF" transform="rotate(139 111.6 185.5)"/><ellipse cx="169.5" cy="163.0" rx="3.2" ry="1.4" fill="#E9E1CF" transform="rotate(113 169.5 163.0)"/><ellipse cx="188.3" cy="180.1" rx="3.2" ry="1.4" fill="#E9E1CF" transform="rotate(113 188.3 180.1)"/><ellipse cx="142.7" cy="181.8" rx="3.2" ry="1.4" fill="#E9E1CF" transform="rotate(164 142.7 181.8)"/><ellipse cx="138.8" cy="165.1" rx="3.2" ry="1.4" fill="#E9E1CF" transform="rotate(64 138.8 165.1)"/><ellipse cx="170.4" cy="176.1" rx="3.2" ry="1.4" fill="#E9E1CF" transform="rotate(142 170.4 176.1)"/><ellipse cx="109.4" cy="193.9" rx="3.2" ry="1.4" fill="#E9E1CF" transform="rotate(79 109.4 193.9)"/><ellipse cx="115.2" cy="192.0" rx="3.2" ry="1.4" fill="#E9E1CF" transform="rotate(92 115.2 192.0)"/><ellipse cx="167.8" cy="185.8" rx="3.2" ry="1.4" fill="#E9E1CF" transform="rotate(28 167.8 185.8)"/><ellipse cx="137.6" cy="144.7" rx="3.2" ry="1.4" fill="#E9E1CF" transform="rotate(170 137.6 144.7)"/><ellipse cx="162.8" cy="174.0" rx="3.2" ry="1.4" fill="#E9E1CF" transform="rotate(150 162.8 174.0)"/><ellipse cx="121.0" cy="151.5" rx="3.2" ry="1.4" fill="#E9E1CF" transform="rotate(26 121.0 151.5)"/><ellipse cx="152.2" cy="146.9" rx="3.2" ry="1.4" fill="#E9E1CF" transform="rotate(66 152.2 146.9)"/><ellipse cx="116.9" cy="197.2" rx="3.2" ry="1.4" fill="#E9E1CF" transform="rotate(126 116.9 197.2)"/><ellipse cx="134.6" cy="143.7" rx="3.2" ry="1.4" fill="#E9E1CF" transform="rotate(174 134.6 143.7)"/><ellipse cx="164.9" cy="197.8" rx="3.2" ry="1.4" fill="#E9E1CF" transform="rotate(26 164.9 197.8)"/><ellipse cx="177.0" cy="159.8" rx="3.2" ry="1.4" fill="#E9E1CF" transform="rotate(167 177.0 159.8)"/><ellipse cx="150.4" cy="150.2" rx="3.2" ry="1.4" fill="#E9E1CF" transform="rotate(15 150.4 150.2)"/><path d="M195.25119215529412 98 a14 14 0 1 1 18 14" fill="none" stroke="#F28A6B" stroke-width="10" stroke-linecap="round"/><path d="M195.25119215529412 98 a14 14 0 1 1 18 14" fill="none" stroke="#FBC3AE" stroke-width="3" stroke-linecap="round"/><path d="M230.15613189758733 98 a14 14 0 1 1 18 14" fill="none" stroke="#F28A6B" stroke-width="10" stroke-linecap="round"/><path d="M230.15613189758733 98 a14 14 0 1 1 18 14" fill="none" stroke="#FBC3AE" stroke-width="3" stroke-linecap="round"/><path d="M267.36687074042857 98 a14 14 0 1 1 18 14" fill="none" stroke="#F28A6B" stroke-width="10" stroke-linecap="round"/><path d="M267.36687074042857 98 a14 14 0 1 1 18 14" fill="none" stroke="#FBC3AE" stroke-width="3" stroke-linecap="round"/><path d="M194.14583452092484 128 a14 14 0 1 1 18 14" fill="none" stroke="#F28A6B" stroke-width="10" stroke-linecap="round"/><path d="M194.14583452092484 128 a14 14 0 1 1 18 14" fill="none" stroke="#FBC3AE" stroke-width="3" stroke-linecap="round"/><path d="M231.24613302061334 128 a14 14 0 1 1 18 14" fill="none" stroke="#F28A6B" stroke-width="10" stroke-linecap="round"/><path d="M231.24613302061334 128 a14 14 0 1 1 18 14" fill="none" stroke="#FBC3AE" stroke-width="3" stroke-linecap="round"/><path d="M271.84081765497103 128 a14 14 0 1 1 18 14" fill="none" stroke="#F28A6B" stroke-width="10" stroke-linecap="round"/><path d="M271.84081765497103 128 a14 14 0 1 1 18 14" fill="none" stroke="#FBC3AE" stroke-width="3" stroke-linecap="round"/><rect x="243.7" y="188.5" width="30" height="7" rx="3.5" fill="#D8432F" transform="rotate(15 243.7 188.5)"/><rect x="282.5" y="180.6" width="30" height="7" rx="3.5" fill="#D8432F" transform="rotate(111 282.5 180.6)"/><rect x="230.4" y="190.5" width="30" height="7" rx="3.5" fill="#D8432F" transform="rotate(76 230.4 190.5)"/><rect x="285.8" y="202.4" width="30" height="7" rx="3.5" fill="#D8432F" transform="rotate(53 285.8 202.4)"/><rect x="266.9" y="201.5" width="28" height="7" rx="3.5" fill="#E8B02F" transform="rotate(65 266.9 201.5)"/><rect x="239.8" y="176.8" width="28" height="7" rx="3.5" fill="#E8B02F" transform="rotate(157 239.8 176.8)"/><rect x="278.2" y="181.2" width="28" height="7" rx="3.5" fill="#5B9A3C" transform="rotate(44 278.2 181.2)"/><rect x="249.0" y="189.6" width="28" height="7" rx="3.5" fill="#5B9A3C" transform="rotate(32 249.0 189.6)"/><circle cx="136.6" cy="84.1" r="10" fill="#E2483A"/><circle cx="133.6" cy="81.1" r="3" fill="#F49283"/><circle cx="154.0" cy="109.9" r="10" fill="#E2483A"/><circle cx="151.0" cy="106.9" r="3" fill="#F49283"/><circle cx="132.3" cy="99.8" r="10" fill="#E2483A"/><circle cx="129.3" cy="96.8" r="3" fill="#F49283"/><circle cx="141.0" cy="103.5" r="10" fill="#E2483A"/><circle cx="138.0" cy="100.5" r="3" fill="#F49283"/><circle cx="134.2" cy="112.1" r="10" fill="#E2483A"/><circle cx="131.2" cy="109.1" r="3" fill="#F49283"/></g>
  <g transform="translate(330 248) scale(0.085)" opacity="0.9">
    <path d="M95 400 C113.3 369.2 167.5 224.2 205 215 C242.5 205.8 283.3 355.0 320 345 C356.7 335.0 395.8 145.0 425 155 C454.2 165.0 483.3 363.3 495 405" fill="none" stroke="#1B1B44" stroke-width="44" stroke-linecap="round" stroke-linejoin="round"/>
    <circle cx="425" cy="78" r="34" fill="#F2A41E"/></g>
</svg>
