<svg xmlns="http://www.w3.org/2000/svg" viewBox="0 0 400 300" role="img" aria-label="Oven fish and chips">
  <defs>
    <radialGradient id="bg" cx="40%" cy="30%" r="80%"><stop offset="0" stop-color="#FFFCF6"/><stop offset="1" stop-color="#E9E6E1"/></radialGradient>
    <radialGradient id="shine" cx="35%" cy="30%" r="70%"><stop offset="0" stop-color="#FFFFFF" stop-opacity="0.35"/><stop offset="1" stop-color="#FFFFFF" stop-opacity="0"/></radialGradient>
  </defs>
  <rect width="400" height="300" rx="28" fill="url(#bg)"/>
  <circle cx="59" cy="250" r="5" fill="#F2A41E" opacity="0.5"/>
  <circle cx="347" cy="40" r="4" fill="#1B1B44" opacity="0.15"/>
  <ellipse cx="200" cy="162" rx="146" ry="110" fill="#000" opacity="0.07"/><circle cx="200" cy="150" r="135" fill="#FFFFFF"/><circle cx="200" cy="150" r="135" fill="none" stroke="#E7E1D6" stroke-width="3"/><circle cx="200" cy="150" r="110" fill="none" stroke="#F1ECE3" stroke-width="2"/>
  <g><ellipse cx="119.2" cy="190.9" rx="16" ry="12" fill="#E2A94A" stroke="#C98A2E" stroke-width="2" transform="rotate(65 119.2 190.9)"/><ellipse cx="144.0" cy="174.3" rx="16" ry="12" fill="#E2A94A" stroke="#C98A2E" stroke-width="2" transform="rotate(88 144.0 174.3)"/><ellipse cx="166.3" cy="148.4" rx="16" ry="12" fill="#E2A94A" stroke="#C98A2E" stroke-width="2" transform="rotate(79 166.3 148.4)"/><ellipse cx="152.9" cy="147.8" rx="16" ry="12" fill="#E2A94A" stroke="#C98A2E" stroke-width="2" transform="rotate(66 152.9 147.8)"/><ellipse cx="162.4" cy="201.5" rx="16" ry="12" fill="#E2A94A" stroke="#C98A2E" stroke-width="2" transform="rotate(17 162.4 201.5)"/><ellipse cx="170.4" cy="177.3" rx="16" ry="12" fill="#E2A94A" stroke="#C98A2E" stroke-width="2" transform="rotate(43 170.4 177.3)"/><ellipse cx="131.0" cy="155.4" rx="16" ry="12" fill="#E2A94A" stroke="#C98A2E" stroke-width="2" transform="rotate(22 131.0 155.4)"/><rect x="184" y="90" width="92" height="48" rx="20" fill="#F6EEDF" stroke="#E2D2B4" stroke-width="2"/><path d="M206 96 q 8 18 0 36" fill="none" stroke="#E6D8BC" stroke-width="3"/><path d="M228 96 q 8 18 0 36" fill="none" stroke="#E6D8BC" stroke-width="3"/><path d="M250 96 q 8 18 0 36" fill="none" stroke="#E6D8BC" stroke-width="3"/><path d="M238 204 a 22 22 0 0 1 44 0 z" fill="#F4D63E" stroke="#E2B92B" stroke-width="3"/><path d="M260 204 l 0 -18 M260 204 l -12 -12 M260 204 l 12 -12" stroke="#E2B92B" stroke-width="2"/></g>
  <g transform="translate(330 248) scale(0.085)" opacity="0.9">
    <path d="M95 400 C113.3 369.2 167.5 224.2 205 215 C242.5 205.8 283.3 355.0 320 345 C356.7 335.0 395.8 145.0 425 155 C454.2 165.0 483.3 363.3 495 405" fill="none" stroke="#1B1B44" stroke-width="44" stroke-linecap="round" stroke-linejoin="round"/>
    <circle cx="425" cy="78" r="34" fill="#F2A41E"/></g>
</svg>
