<svg xmlns="http://www.w3.org/2000/svg" viewBox="0 0 400 300" role="img" aria-label="Protein pancakes with berries">
  <defs>
    <radialGradient id="bg" cx="40%" cy="30%" r="80%"><stop offset="0" stop-color="#FFFCF6"/><stop offset="1" stop-color="#F8EDD5"/></radialGradient>
    <radialGradient id="shine" cx="35%" cy="30%" r="70%"><stop offset="0" stop-color="#FFFFFF" stop-opacity="0.35"/><stop offset="1" stop-color="#FFFFFF" stop-opacity="0"/></radialGradient>
  </defs>
  <rect width="400" height="300" rx="28" fill="url(#bg)"/>
  <circle cx="47" cy="262" r="5" fill="#F2A41E" opacity="0.5"/>
  <circle cx="356" cy="34" r="4" fill="#1B1B44" opacity="0.15"/>
  <ellipse cx="200" cy="162" rx="146" ry="110" fill="#000" opacity="0.07"/><circle cx="200" cy="150" r="135" fill="#FFFFFF"/><circle cx="200" cy="150" r="135" fill="none" stroke="#E7E1D6" stroke-width="3"/><circle cx="200" cy="150" r="110" fill="none" stroke="#F1ECE3" stroke-width="2"/>
  <g><ellipse cx="154" cy="176" rx="56" ry="42" fill="#E9D7B4"/><ellipse cx="142.2" cy="203.1" rx="4" ry="1.8" fill="#CDB083" transform="rotate(141 142.2 203.1)"/><ellipse cx="195.6" cy="191.8" rx="4" ry="1.8" fill="#CDB083" transform="rotate(108 195.6 191.8)"/><ellipse cx="163.1" cy="209.1" rx="4" ry="1.8" fill="#CDB083" transform="rotate(167 163.1 209.1)"/><ellipse cx="140.2" cy="199.2" rx="4" ry="1.8" fill="#CDB083" transform="rotate(94 140.2 199.2)"/><ellipse cx="134.8" cy="150.8" rx="4" ry="1.8" fill="#CDB083" transform="rotate(146 134.8 150.8)"/><ellipse cx="144.0" cy="176.8" rx="4" ry="1.8" fill="#CDB083" transform="rotate(157 144.0 176.8)"/><ellipse cx="188.0" cy="157.8" rx="4" ry="1.8" fill="#CDB083" transform="rotate(85 188.0 157.8)"/><ellipse cx="115.2" cy="172.2" rx="4" ry="1.8" fill="#CDB083" transform="rotate(24 115.2 172.2)"/><ellipse cx="159.0" cy="188.0" rx="4" ry="1.8" fill="#CDB083" transform="rotate(41 159.0 188.0)"/><ellipse cx="148.3" cy="171.6" rx="4" ry="1.8" fill="#CDB083" transform="rotate(62 148.3 171.6)"/><ellipse cx="151.3" cy="150.8" rx="4" ry="1.8" fill="#CDB083" transform="rotate(75 151.3 150.8)"/><ellipse cx="182.9" cy="160.8" rx="4" ry="1.8" fill="#CDB083" transform="rotate(27 182.9 160.8)"/><ellipse cx="178.5" cy="153.8" rx="4" ry="1.8" fill="#CDB083" transform="rotate(152 178.5 153.8)"/><ellipse cx="147.3" cy="140.6" rx="4" ry="1.8" fill="#CDB083" transform="rotate(106 147.3 140.6)"/><ellipse cx="175.0" cy="156.7" rx="4" ry="1.8" fill="#CDB083" transform="rotate(26 175.0 156.7)"/><ellipse cx="150.7" cy="164.9" rx="4" ry="1.8" fill="#CDB083" transform="rotate(167 150.7 164.9)"/><ellipse cx="173.8" cy="184.1" rx="4" ry="1.8" fill="#CDB083" transform="rotate(104 173.8 184.1)"/><ellipse cx="136.6" cy="144.9" rx="4" ry="1.8" fill="#CDB083" transform="rotate(125 136.6 144.9)"/><ellipse cx="138.3" cy="178.8" rx="4" ry="1.8" fill="#CDB083" transform="rotate(86 138.3 178.8)"/><ellipse cx="156.5" cy="164.8" rx="4" ry="1.8" fill="#CDB083" transform="rotate(55 156.5 164.8)"/><ellipse cx="158.5" cy="172.4" rx="4" ry="1.8" fill="#CDB083" transform="rotate(159 158.5 172.4)"/><ellipse cx="152.8" cy="146.1" rx="4" ry="1.8" fill="#CDB083" transform="rotate(88 152.8 146.1)"/><ellipse cx="161.7" cy="208.5" rx="4" ry="1.8" fill="#CDB083" transform="rotate(152 161.7 208.5)"/><ellipse cx="111.5" cy="188.9" rx="4" ry="1.8" fill="#CDB083" transform="rotate(97 111.5 188.9)"/><ellipse cx="127.4" cy="150.6" rx="4" ry="1.8" fill="#CDB083" transform="rotate(120 127.4 150.6)"/><ellipse cx="130.1" cy="166.1" rx="4" ry="1.8" fill="#CDB083" transform="rotate(122 130.1 166.1)"/><ellipse cx="149.1" cy="141.4" rx="4" ry="1.8" fill="#CDB083" transform="rotate(171 149.1 141.4)"/><ellipse cx="195.5" cy="174.5" rx="4" ry="1.8" fill="#CDB083" transform="rotate(145 195.5 174.5)"/><ellipse cx="172.0" cy="206.2" rx="4" ry="1.8" fill="#CDB083" transform="rotate(149 172.0 206.2)"/><ellipse cx="160.2" cy="146.3" rx="4" ry="1.8" fill="#CDB083" transform="rotate(119 160.2 146.3)"/><ellipse cx="172.4" cy="160.3" rx="4" ry="1.8" fill="#CDB083" transform="rotate(53 172.4 160.3)"/><ellipse cx="171.2" cy="165.5" rx="4" ry="1.8" fill="#CDB083" transform="rotate(27 171.2 165.5)"/><ellipse cx="178.4" cy="204.9" rx="4" ry="1.8" fill="#CDB083" transform="rotate(21 178.4 204.9)"/><ellipse cx="162.8" cy="178.6" rx="4" ry="1.8" fill="#CDB083" transform="rotate(125 162.8 178.6)"/><ellipse cx="108.3" cy="177.9" rx="4" ry="1.8" fill="#CDB083" transform="rotate(73 108.3 177.9)"/><ellipse cx="153.0" cy="148.3" rx="4" ry="1.8" fill="#CDB083" transform="rotate(19 153.0 148.3)"/><ellipse cx="192.5" cy="172.2" rx="4" ry="1.8" fill="#CDB083" transform="rotate(16 192.5 172.2)"/><ellipse cx="157.1" cy="159.5" rx="4" ry="1.8" fill="#CDB083" transform="rotate(58 157.1 159.5)"/><ellipse cx="194.2" cy="184.0" rx="4" ry="1.8" fill="#CDB083" transform="rotate(76 194.2 184.0)"/><ellipse cx="156.0" cy="172.5" rx="4" ry="1.8" fill="#CDB083" transform="rotate(120 156.0 172.5)"/><ellipse cx="181.2" cy="184.9" rx="4" ry="1.8" fill="#CDB083" transform="rotate(68 181.2 184.9)"/><ellipse cx="135.7" cy="208.3" rx="4" ry="1.8" fill="#CDB083" transform="rotate(77 135.7 208.3)"/><ellipse cx="173.1" cy="165.5" rx="4" ry="1.8" fill="#CDB083" transform="rotate(128 173.1 165.5)"/><ellipse cx="159.2" cy="181.0" rx="4" ry="1.8" fill="#CDB083" transform="rotate(76 159.2 181.0)"/><ellipse cx="125.3" cy="197.6" rx="4" ry="1.8" fill="#CDB083" transform="rotate(42 125.3 197.6)"/><ellipse cx="168.2" cy="164.4" rx="4" ry="1.8" fill="#CDB083" transform="rotate(102 168.2 164.4)"/><ellipse cx="125.1" cy="173.0" rx="4" ry="1.8" fill="#CDB083" transform="rotate(86 125.1 173.0)"/><ellipse cx="121.6" cy="186.6" rx="4" ry="1.8" fill="#CDB083" transform="rotate(0 121.6 186.6)"/><ellipse cx="134.5" cy="179.5" rx="4" ry="1.8" fill="#CDB083" transform="rotate(131 134.5 179.5)"/><ellipse cx="180.7" cy="197.0" rx="4" ry="1.8" fill="#CDB083" transform="rotate(111 180.7 197.0)"/><ellipse cx="184.8" cy="196.9" rx="4" ry="1.8" fill="#CDB083" transform="rotate(123 184.8 196.9)"/><ellipse cx="163.9" cy="206.5" rx="4" ry="1.8" fill="#CDB083" transform="rotate(130 163.9 206.5)"/><ellipse cx="151.8" cy="184.2" rx="4" ry="1.8" fill="#CDB083" transform="rotate(67 151.8 184.2)"/><ellipse cx="168.7" cy="193.6" rx="4" ry="1.8" fill="#CDB083" transform="rotate(140 168.7 193.6)"/><ellipse cx="148.7" cy="141.6" rx="4" ry="1.8" fill="#CDB083" transform="rotate(97 148.7 141.6)"/><ellipse cx="203.7" cy="179.0" rx="4" ry="1.8" fill="#CDB083" transform="rotate(40 203.7 179.0)"/><ellipse cx="107.9" cy="180.3" rx="4" ry="1.8" fill="#CDB083" transform="rotate(97 107.9 180.3)"/><ellipse cx="175.9" cy="169.2" rx="4" ry="1.8" fill="#CDB083" transform="rotate(71 175.9 169.2)"/><ellipse cx="172.3" cy="194.5" rx="4" ry="1.8" fill="#CDB083" transform="rotate(162 172.3 194.5)"/><ellipse cx="167.5" cy="183.3" rx="4" ry="1.8" fill="#CDB083" transform="rotate(168 167.5 183.3)"/><ellipse cx="206" cy="114" rx="26" ry="22" fill="#FFFFFF"/><circle cx="206" cy="114" r="10" fill="#F2B632"/><ellipse cx="254" cy="114" rx="26" ry="22" fill="#FFFFFF"/><circle cx="254" cy="114" r="10" fill="#F2B632"/><circle cx="249.9" cy="177.6" r="6" fill="#3E4FA8"/><circle cx="259.6" cy="189.1" r="6" fill="#3E4FA8"/><circle cx="264.2" cy="210.9" r="6" fill="#3E4FA8"/><circle cx="227.7" cy="185.1" r="6" fill="#3E4FA8"/><circle cx="259.1" cy="198.6" r="6" fill="#3E4FA8"/><circle cx="279.2" cy="202.0" r="6" fill="#3E4FA8"/><circle cx="225.3" cy="191.1" r="6" fill="#3E4FA8"/><circle cx="274.1" cy="185.1" r="6" fill="#3E4FA8"/><circle cx="257.5" cy="197.2" r="6" fill="#3E4FA8"/><circle cx="275.6" cy="178.1" r="6" fill="#3E4FA8"/><circle cx="268.8" cy="205.2" r="6" fill="#D2364B"/><circle cx="243.9" cy="192.6" r="6" fill="#D2364B"/><circle cx="273.4" cy="203.6" r="6" fill="#D2364B"/><circle cx="230.9" cy="203.3" r="6" fill="#D2364B"/><circle cx="280.9" cy="194.4" r="6" fill="#D2364B"/><circle cx="262.7" cy="201.8" r="6" fill="#D2364B"/><circle cx="247.8" cy="206.0" r="6" fill="#D2364B"/><circle cx="252.2" cy="191.1" r="6" fill="#D2364B"/></g>
  <g transform="translate(330 248) scale(0.085)" opacity="0.9">
    <path d="M95 400 C113.3 369.2 167.5 224.2 205 215 C242.5 205.8 283.3 355.0 320 345 C356.7 335.0 395.8 145.0 425 155 C454.2 165.0 483.3 363.3 495 405" fill="none" stroke="#1B1B44" stroke-width="44" stroke-linecap="round" stroke-linejoin="round"/>
    <circle cx="425" cy="78" r="34" fill="#F2A41E"/></g>
</svg>
