<svg xmlns="http://www.w3.org/2000/svg" viewBox="0 0 400 300" role="img" aria-label="Smoked salmon bagels">
  <defs>
    <radialGradient id="bg" cx="40%" cy="30%" r="80%"><stop offset="0" stop-color="#FFFCF6"/><stop offset="1" stop-color="#F8EDD5"/></radialGradient>
    <radialGradient id="shine" cx="35%" cy="30%" r="70%"><stop offset="0" stop-color="#FFFFFF" stop-opacity="0.35"/><stop offset="1" stop-color="#FFFFFF" stop-opacity="0"/></radialGradient>
  </defs>
  <rect width="400" height="300" rx="28" fill="url(#bg)"/>
  <circle cx="76" cy="259" r="5" fill="#F2A41E" opacity="0.5"/>
  <circle cx="343" cy="32" r="4" fill="#1B1B44" opacity="0.15"/>
  <ellipse cx="200" cy="162" rx="146" ry="110" fill="#000" opacity="0.07"/><circle cx="200" cy="150" r="135" fill="#FFFFFF"/><circle cx="200" cy="150" r="135" fill="none" stroke="#E7E1D6" stroke-width="3"/><circle cx="200" cy="150" r="110" fill="none" stroke="#F1ECE3" stroke-width="2"/>
  <g><ellipse cx="210" cy="156" rx="86" ry="70" fill="#F2EBDD" opacity="0.85"/><rect x="102" y="142" width="104" height="68" rx="22" fill="#D99A4E"/><rect x="110" y="150" width="88" height="52" rx="16" fill="#F2D09A"/><rect x="184" y="88" width="92" height="52" rx="20" fill="#F08C5F"/><path d="M200 92 q 6 22 0 44" fill="none" stroke="#FBD4BE" stroke-width="3"/><path d="M220 92 q 6 22 0 44" fill="none" stroke="#FBD4BE" stroke-width="3"/><path d="M240 92 q 6 22 0 44" fill="none" stroke="#FBD4BE" stroke-width="3"/><path d="M260 92 q 6 22 0 44" fill="none" stroke="#FBD4BE" stroke-width="3"/><rect x="184" y="88" width="92" height="52" rx="20" fill="none" stroke="#C85F37" stroke-width="2"/><circle cx="226" cy="188" r="11" fill="#CFE6A9" stroke="#4F8A3A" stroke-width="3"/><circle cx="246" cy="202" r="11" fill="#CFE6A9" stroke="#4F8A3A" stroke-width="3"/><circle cx="266" cy="188" r="11" fill="#CFE6A9" stroke="#4F8A3A" stroke-width="3"/><circle cx="286" cy="202" r="11" fill="#CFE6A9" stroke="#4F8A3A" stroke-width="3"/><path d="M132 110 a 22 22 0 0 1 44 0 z" fill="#F4D63E" stroke="#E2B92B" stroke-width="3"/><path d="M154 110 l 0 -18 M154 110 l -12 -12 M154 110 l 12 -12" stroke="#E2B92B" stroke-width="2"/></g>
  <g transform="translate(330 248) scale(0.085)" opacity="0.9">
    <path d="M95 400 C113.3 369.2 167.5 224.2 205 215 C242.5 205.8 283.3 355.0 320 345 C356.7 335.0 395.8 145.0 425 155 C454.2 165.0 483.3 363.3 495 405" fill="none" stroke="#1B1B44" stroke-width="44" stroke-linecap="round" stroke-linejoin="round"/>
    <circle cx="425" cy="78" r="34" fill="#F2A41E"/></g>
</svg>
