<svg xmlns="http://www.w3.org/2000/svg" viewBox="0 0 400 300" role="img" aria-label="Stuffed bell peppers">
  <defs>
    <radialGradient id="bg" cx="40%" cy="30%" r="80%"><stop offset="0" stop-color="#FFFCF6"/><stop offset="1" stop-color="#F2E6DA"/></radialGradient>
    <radialGradient id="shine" cx="35%" cy="30%" r="70%"><stop offset="0" stop-color="#FFFFFF" stop-opacity="0.35"/><stop offset="1" stop-color="#FFFFFF" stop-opacity="0"/></radialGradient>
  </defs>
  <rect width="400" height="300" rx="28" fill="url(#bg)"/>
  <circle cx="57" cy="263" r="5" fill="#F2A41E" opacity="0.5"/>
  <circle cx="351" cy="43" r="4" fill="#1B1B44" opacity="0.15"/>
  <ellipse cx="200" cy="162" rx="146" ry="110" fill="#000" opacity="0.07"/><circle cx="200" cy="150" r="135" fill="#FFFFFF"/><circle cx="200" cy="150" r="135" fill="none" stroke="#E7E1D6" stroke-width="3"/><circle cx="200" cy="150" r="110" fill="none" stroke="#F1ECE3" stroke-width="2"/>
  <g><ellipse cx="154" cy="176" rx="58" ry="44" fill="#FBF8F1"/><ellipse cx="149.3" cy="146.2" rx="3.2" ry="1.4" fill="#E9E1CF" transform="rotate(98 149.3 146.2)"/><ellipse cx="127.5" cy="165.6" rx="3.2" ry="1.4" fill="#E9E1CF" transform="rotate(61 127.5 165.6)"/><ellipse cx="166.0" cy="209.3" rx="3.2" ry="1.4" fill="#E9E1CF" transform="rotate(5 166.0 209.3)"/><ellipse cx="141.7" cy="157.4" rx="3.2" ry="1.4" fill="#E9E1CF" transform="rotate(0 141.7 157.4)"/><ellipse cx="124.6" cy="146.9" rx="3.2" ry="1.4" fill="#E9E1CF" transform="rotate(42 124.6 146.9)"/><ellipse cx="119.9" cy="173.0" rx="3.2" ry="1.4" fill="#E9E1CF" transform="rotate(39 119.9 173.0)"/><ellipse cx="170.1" cy="180.7" rx="3.2" ry="1.4" fill="#E9E1CF" transform="rotate(137 170.1 180.7)"/><ellipse cx="200.6" cy="180.4" rx="3.2" ry="1.4" fill="#E9E1CF" transform="rotate(161 200.6 180.4)"/><ellipse cx="196.4" cy="166.8" rx="3.2" ry="1.4" fill="#E9E1CF" transform="rotate(74 196.4 166.8)"/><ellipse cx="167.3" cy="212.1" rx="3.2" ry="1.4" fill="#E9E1CF" transform="rotate(50 167.3 212.1)"/><ellipse cx="118.4" cy="148.3" rx="3.2" ry="1.4" fill="#E9E1CF" transform="rotate(70 118.4 148.3)"/><ellipse cx="162.5" cy="197.4" rx="3.2" ry="1.4" fill="#E9E1CF" transform="rotate(67 162.5 197.4)"/><ellipse cx="194.8" cy="176.7" rx="3.2" ry="1.4" fill="#E9E1CF" transform="rotate(144 194.8 176.7)"/><ellipse cx="189.2" cy="199.2" rx="3.2" ry="1.4" fill="#E9E1CF" transform="rotate(57 189.2 199.2)"/><ellipse cx="119.3" cy="148.6" rx="3.2" ry="1.4" fill="#E9E1CF" transform="rotate(76 119.3 148.6)"/><ellipse cx="135.8" cy="180.4" rx="3.2" ry="1.4" fill="#E9E1CF" transform="rotate(125 135.8 180.4)"/><ellipse cx="152.9" cy="192.0" rx="3.2" ry="1.4" fill="#E9E1CF" transform="rotate(70 152.9 192.0)"/><ellipse cx="157.5" cy="152.4" rx="3.2" ry="1.4" fill="#E9E1CF" transform="rotate(70 157.5 152.4)"/><ellipse cx="182.0" cy="188.9" rx="3.2" ry="1.4" fill="#E9E1CF" transform="rotate(161 182.0 188.9)"/><ellipse cx="159.6" cy="163.1" rx="3.2" ry="1.4" fill="#E9E1CF" transform="rotate(71 159.6 163.1)"/><ellipse cx="120.8" cy="193.5" rx="3.2" ry="1.4" fill="#E9E1CF" transform="rotate(128 120.8 193.5)"/><ellipse cx="202.5" cy="184.7" rx="3.2" ry="1.4" fill="#E9E1CF" transform="rotate(162 202.5 184.7)"/><ellipse cx="177.6" cy="158.0" rx="3.2" ry="1.4" fill="#E9E1CF" transform="rotate(27 177.6 158.0)"/><ellipse cx="122.6" cy="154.4" rx="3.2" ry="1.4" fill="#E9E1CF" transform="rotate(62 122.6 154.4)"/><ellipse cx="157.5" cy="147.2" rx="3.2" ry="1.4" fill="#E9E1CF" transform="rotate(68 157.5 147.2)"/><ellipse cx="184.4" cy="163.1" rx="3.2" ry="1.4" fill="#E9E1CF" transform="rotate(25 184.4 163.1)"/><ellipse cx="134.6" cy="151.1" rx="3.2" ry="1.4" fill="#E9E1CF" transform="rotate(60 134.6 151.1)"/><ellipse cx="137.5" cy="150.1" rx="3.2" ry="1.4" fill="#E9E1CF" transform="rotate(54 137.5 150.1)"/><ellipse cx="134.1" cy="198.8" rx="3.2" ry="1.4" fill="#E9E1CF" transform="rotate(175 134.1 198.8)"/><ellipse cx="144.9" cy="155.8" rx="3.2" ry="1.4" fill="#E9E1CF" transform="rotate(38 144.9 155.8)"/><ellipse cx="138.5" cy="209.3" rx="3.2" ry="1.4" fill="#E9E1CF" transform="rotate(99 138.5 209.3)"/><ellipse cx="159.3" cy="146.8" rx="3.2" ry="1.4" fill="#E9E1CF" transform="rotate(114 159.3 146.8)"/><ellipse cx="118.0" cy="159.6" rx="3.2" ry="1.4" fill="#E9E1CF" transform="rotate(16 118.0 159.6)"/><ellipse cx="115.9" cy="160.1" rx="3.2" ry="1.4" fill="#E9E1CF" transform="rotate(51 115.9 160.1)"/><ellipse cx="113.7" cy="168.0" rx="3.2" ry="1.4" fill="#E9E1CF" transform="rotate(139 113.7 168.0)"/><ellipse cx="165.8" cy="144.4" rx="3.2" ry="1.4" fill="#E9E1CF" transform="rotate(70 165.8 144.4)"/><ellipse cx="118.8" cy="193.6" rx="3.2" ry="1.4" fill="#E9E1CF" transform="rotate(23 118.8 193.6)"/><ellipse cx="147.2" cy="163.0" rx="3.2" ry="1.4" fill="#E9E1CF" transform="rotate(112 147.2 163.0)"/><ellipse cx="175.9" cy="175.9" rx="3.2" ry="1.4" fill="#E9E1CF" transform="rotate(52 175.9 175.9)"/><ellipse cx="124.6" cy="191.6" rx="3.2" ry="1.4" fill="#E9E1CF" transform="rotate(175 124.6 191.6)"/><ellipse cx="170.1" cy="153.4" rx="3.2" ry="1.4" fill="#E9E1CF" transform="rotate(178 170.1 153.4)"/><ellipse cx="188.7" cy="148.6" rx="3.2" ry="1.4" fill="#E9E1CF" transform="rotate(79 188.7 148.6)"/><ellipse cx="147.5" cy="160.8" rx="3.2" ry="1.4" fill="#E9E1CF" transform="rotate(128 147.5 160.8)"/><ellipse cx="134.9" cy="142.1" rx="3.2" ry="1.4" fill="#E9E1CF" transform="rotate(160 134.9 142.1)"/><ellipse cx="197.0" cy="193.7" rx="3.2" ry="1.4" fill="#E9E1CF" transform="rotate(27 197.0 193.7)"/><ellipse cx="174.9" cy="153.5" rx="3.2" ry="1.4" fill="#E9E1CF" transform="rotate(165 174.9 153.5)"/><ellipse cx="171.0" cy="174.8" rx="3.2" ry="1.4" fill="#E9E1CF" transform="rotate(43 171.0 174.8)"/><ellipse cx="121.2" cy="194.4" rx="3.2" ry="1.4" fill="#E9E1CF" transform="rotate(138 121.2 194.4)"/><ellipse cx="180.0" cy="182.9" rx="3.2" ry="1.4" fill="#E9E1CF" transform="rotate(71 180.0 182.9)"/><ellipse cx="162.3" cy="149.1" rx="3.2" ry="1.4" fill="#E9E1CF" transform="rotate(122 162.3 149.1)"/><ellipse cx="175.2" cy="149.9" rx="3.2" ry="1.4" fill="#E9E1CF" transform="rotate(133 175.2 149.9)"/><ellipse cx="134.3" cy="146.1" rx="3.2" ry="1.4" fill="#E9E1CF" transform="rotate(57 134.3 146.1)"/><ellipse cx="169.8" cy="204.0" rx="3.2" ry="1.4" fill="#E9E1CF" transform="rotate(149 169.8 204.0)"/><ellipse cx="105.1" cy="188.7" rx="3.2" ry="1.4" fill="#E9E1CF" transform="rotate(161 105.1 188.7)"/><ellipse cx="164.8" cy="139.5" rx="3.2" ry="1.4" fill="#E9E1CF" transform="rotate(28 164.8 139.5)"/><ellipse cx="187.6" cy="196.9" rx="3.2" ry="1.4" fill="#E9E1CF" transform="rotate(103 187.6 196.9)"/><ellipse cx="187.8" cy="183.5" rx="3.2" ry="1.4" fill="#E9E1CF" transform="rotate(133 187.8 183.5)"/><ellipse cx="157.2" cy="173.4" rx="3.2" ry="1.4" fill="#E9E1CF" transform="rotate(49 157.2 173.4)"/><ellipse cx="131.1" cy="208.8" rx="3.2" ry="1.4" fill="#E9E1CF" transform="rotate(124 131.1 208.8)"/><ellipse cx="122.5" cy="150.2" rx="3.2" ry="1.4" fill="#E9E1CF" transform="rotate(155 122.5 150.2)"/><ellipse cx="143.8" cy="147.0" rx="3.2" ry="1.4" fill="#E9E1CF" transform="rotate(180 143.8 147.0)"/><ellipse cx="143.0" cy="167.1" rx="3.2" ry="1.4" fill="#E9E1CF" transform="rotate(4 143.0 167.1)"/><ellipse cx="114.3" cy="163.6" rx="3.2" ry="1.4" fill="#E9E1CF" transform="rotate(152 114.3 163.6)"/><ellipse cx="133.8" cy="189.8" rx="3.2" ry="1.4" fill="#E9E1CF" transform="rotate(155 133.8 189.8)"/><ellipse cx="190.2" cy="153.6" rx="3.2" ry="1.4" fill="#E9E1CF" transform="rotate(125 190.2 153.6)"/><ellipse cx="123.6" cy="156.0" rx="3.2" ry="1.4" fill="#E9E1CF" transform="rotate(31 123.6 156.0)"/><ellipse cx="162.3" cy="196.1" rx="3.2" ry="1.4" fill="#E9E1CF" transform="rotate(60 162.3 196.1)"/><ellipse cx="145.8" cy="158.5" rx="3.2" ry="1.4" fill="#E9E1CF" transform="rotate(90 145.8 158.5)"/><ellipse cx="117.6" cy="168.9" rx="3.2" ry="1.4" fill="#E9E1CF" transform="rotate(165 117.6 168.9)"/><ellipse cx="124.5" cy="179.5" rx="3.2" ry="1.4" fill="#E9E1CF" transform="rotate(117 124.5 179.5)"/><path d="M254.5 125.1 l 7 -3 l 4 6 l -6 5 l -7 -2 z" fill="#9A5636"/><path d="M248.7 133.4 l 7 -3 l 4 6 l -6 5 l -7 -2 z" fill="#7E4128"/><path d="M245.9 108.0 l 7 -3 l 4 6 l -6 5 l -7 -2 z" fill="#7E4128"/><path d="M216.7 98.6 l 7 -3 l 4 6 l -6 5 l -7 -2 z" fill="#9A5636"/><path d="M219.2 120.4 l 7 -3 l 4 6 l -6 5 l -7 -2 z" fill="#7E4128"/><path d="M247.2 101.6 l 7 -3 l 4 6 l -6 5 l -7 -2 z" fill="#7E4128"/><path d="M247.5 97.4 l 7 -3 l 4 6 l -6 5 l -7 -2 z" fill="#9A5636"/><path d="M238.4 93.1 l 7 -3 l 4 6 l -6 5 l -7 -2 z" fill="#7E4128"/><path d="M257.0 94.7 l 7 -3 l 4 6 l -6 5 l -7 -2 z" fill="#7E4128"/><path d="M250.8 122.3 l 7 -3 l 4 6 l -6 5 l -7 -2 z" fill="#9A5636"/><path d="M241.2 93.5 l 7 -3 l 4 6 l -6 5 l -7 -2 z" fill="#7E4128"/><path d="M241.6 114.0 l 7 -3 l 4 6 l -6 5 l -7 -2 z" fill="#7E4128"/><path d="M233.1 137.5 l 7 -3 l 4 6 l -6 5 l -7 -2 z" fill="#9A5636"/><path d="M212.9 108.3 l 7 -3 l 4 6 l -6 5 l -7 -2 z" fill="#7E4128"/><path d="M228.6 94.7 l 7 -3 l 4 6 l -6 5 l -7 -2 z" fill="#7E4128"/><path d="M226.4 124.7 l 7 -3 l 4 6 l -6 5 l -7 -2 z" fill="#9A5636"/><path d="M242.7 117.5 l 7 -3 l 4 6 l -6 5 l -7 -2 z" fill="#7E4128"/><path d="M233.2 95.4 l 7 -3 l 4 6 l -6 5 l -7 -2 z" fill="#7E4128"/><path d="M199.6 106.2 l 7 -3 l 4 6 l -6 5 l -7 -2 z" fill="#9A5636"/><path d="M218.0 91.1 l 7 -3 l 4 6 l -6 5 l -7 -2 z" fill="#7E4128"/><path d="M192.5 120.9 l 7 -3 l 4 6 l -6 5 l -7 -2 z" fill="#7E4128"/><path d="M256.3 97.1 l 7 -3 l 4 6 l -6 5 l -7 -2 z" fill="#9A5636"/><path d="M266.3 119.3 l 7 -3 l 4 6 l -6 5 l -7 -2 z" fill="#7E4128"/><path d="M253.7 134.4 l 7 -3 l 4 6 l -6 5 l -7 -2 z" fill="#7E4128"/><path d="M248.8 104.7 l 7 -3 l 4 6 l -6 5 l -7 -2 z" fill="#9A5636"/><path d="M262.2 103.2 l 7 -3 l 4 6 l -6 5 l -7 -2 z" fill="#7E4128"/><rect x="243.6" y="183.7" width="30" height="7" rx="3.5" fill="#D8432F" transform="rotate(158 243.6 183.7)"/><rect x="272.4" y="195.8" width="30" height="7" rx="3.5" fill="#D8432F" transform="rotate(19 272.4 195.8)"/><rect x="271.2" y="186.6" width="30" height="7" rx="3.5" fill="#D8432F" transform="rotate(22 271.2 186.6)"/><rect x="282.6" y="180.9" width="30" height="7" rx="3.5" fill="#D8432F" transform="rotate(101 282.6 180.9)"/><rect x="267.3" y="209.4" width="28" height="7" rx="3.5" fill="#E8B02F" transform="rotate(115 267.3 209.4)"/><rect x="226.2" y="185.3" width="28" height="7" rx="3.5" fill="#E8B02F" transform="rotate(140 226.2 185.3)"/><rect x="260.6" y="209.4" width="28" height="7" rx="3.5" fill="#5B9A3C" transform="rotate(90 260.6 209.4)"/><rect x="261.9" y="206.2" width="28" height="7" rx="3.5" fill="#5B9A3C" transform="rotate(75 261.9 206.2)"/><circle cx="149.8" cy="99.8" r="10" fill="#E2483A"/><circle cx="146.8" cy="96.8" r="3" fill="#F49283"/><circle cx="148.1" cy="92.0" r="10" fill="#E2483A"/><circle cx="145.1" cy="89.0" r="3" fill="#F49283"/><circle cx="143.0" cy="96.1" r="10" fill="#E2483A"/><circle cx="140.0" cy="93.1" r="3" fill="#F49283"/><circle cx="138.5" cy="99.2" r="10" fill="#E2483A"/><circle cx="135.5" cy="96.2" r="3" fill="#F49283"/><circle cx="173.5" cy="108.9" r="10" fill="#E2483A"/><circle cx="170.5" cy="105.9" r="3" fill="#F49283"/></g>
  <g transform="translate(330 248) scale(0.085)" opacity="0.9">
    <path d="M95 400 C113.3 369.2 167.5 224.2 205 215 C242.5 205.8 283.3 355.0 320 345 C356.7 335.0 395.8 145.0 425 155 C454.2 165.0 483.3 363.3 495 405" fill="none" stroke="#1B1B44" stroke-width="44" stroke-linecap="round" stroke-linejoin="round"/>
    <circle cx="425" cy="78" r="34" fill="#F2A41E"/></g>
</svg>
