<svg xmlns="http://www.w3.org/2000/svg" viewBox="0 0 400 300" role="img" aria-label="Thai green curry chicken">
  <defs>
    <radialGradient id="bg" cx="40%" cy="30%" r="80%"><stop offset="0" stop-color="#FFFCF6"/><stop offset="1" stop-color="#E9EEDC"/></radialGradient>
    <radialGradient id="shine" cx="35%" cy="30%" r="70%"><stop offset="0" stop-color="#FFFFFF" stop-opacity="0.35"/><stop offset="1" stop-color="#FFFFFF" stop-opacity="0"/></radialGradient>
  </defs>
  <rect width="400" height="300" rx="28" fill="url(#bg)"/>
  <circle cx="49" cy="261" r="5" fill="#F2A41E" opacity="0.5"/>
  <circle cx="335" cy="48" r="4" fill="#1B1B44" opacity="0.15"/>
  <ellipse cx="200" cy="162" rx="130" ry="100" fill="#000" opacity="0.08"/>
      <circle cx="200" cy="150" r="122" fill="#FFFFFF"/><circle cx="200" cy="150" r="122" fill="none" stroke="#E7E1D6" stroke-width="3"/>
      <circle cx="200" cy="150" r="102" fill="#C98A2E"/><circle cx="200" cy="150" r="102" fill="url(#shine)"/>
  <g><rect x="130" y="104" width="26" height="46" rx="10" fill="#E8C08A" transform="rotate(-18 143 126)"/><line x1="134" y1="116" x2="152" y2="112" stroke="#B9824A" stroke-width="3" stroke-linecap="round" transform="rotate(-18 143 126)"/><line x1="134" y1="130" x2="152" y2="126" stroke="#B9824A" stroke-width="3" stroke-linecap="round" transform="rotate(-18 143 126)"/><rect x="150" y="114" width="26" height="46" rx="10" fill="#E8C08A" transform="rotate(-18 163 136)"/><line x1="154" y1="126" x2="172" y2="122" stroke="#B9824A" stroke-width="3" stroke-linecap="round" transform="rotate(-18 163 136)"/><line x1="154" y1="140" x2="172" y2="136" stroke="#B9824A" stroke-width="3" stroke-linecap="round" transform="rotate(-18 163 136)"/><rect x="170" y="104" width="26" height="46" rx="10" fill="#E8C08A" transform="rotate(-18 183 126)"/><line x1="174" y1="116" x2="192" y2="112" stroke="#B9824A" stroke-width="3" stroke-linecap="round" transform="rotate(-18 183 126)"/><line x1="174" y1="130" x2="192" y2="126" stroke="#B9824A" stroke-width="3" stroke-linecap="round" transform="rotate(-18 183 126)"/><rect x="190" y="114" width="26" height="46" rx="10" fill="#E8C08A" transform="rotate(-18 203 136)"/><line x1="194" y1="126" x2="212" y2="122" stroke="#B9824A" stroke-width="3" stroke-linecap="round" transform="rotate(-18 203 136)"/><line x1="194" y1="140" x2="212" y2="136" stroke="#B9824A" stroke-width="3" stroke-linecap="round" transform="rotate(-18 203 136)"/><rect x="210" y="104" width="26" height="46" rx="10" fill="#E8C08A" transform="rotate(-18 223 126)"/><line x1="214" y1="116" x2="232" y2="112" stroke="#B9824A" stroke-width="3" stroke-linecap="round" transform="rotate(-18 223 126)"/><line x1="214" y1="130" x2="232" y2="126" stroke="#B9824A" stroke-width="3" stroke-linecap="round" transform="rotate(-18 223 126)"/><ellipse cx="244.6" cy="195.2" rx="3.2" ry="1.4" fill="#E9E1CF" transform="rotate(6 244.6 195.2)"/><ellipse cx="262.3" cy="185.8" rx="3.2" ry="1.4" fill="#E9E1CF" transform="rotate(26 262.3 185.8)"/><ellipse cx="235.7" cy="202.3" rx="3.2" ry="1.4" fill="#E9E1CF" transform="rotate(38 235.7 202.3)"/><ellipse cx="189.2" cy="177.2" rx="3.2" ry="1.4" fill="#E9E1CF" transform="rotate(2 189.2 177.2)"/><ellipse cx="244.4" cy="190.9" rx="3.2" ry="1.4" fill="#E9E1CF" transform="rotate(100 244.4 190.9)"/><ellipse cx="201.6" cy="201.2" rx="3.2" ry="1.4" fill="#E9E1CF" transform="rotate(34 201.6 201.2)"/><ellipse cx="211.1" cy="163.2" rx="3.2" ry="1.4" fill="#E9E1CF" transform="rotate(112 211.1 163.2)"/><ellipse cx="273.3" cy="189.6" rx="3.2" ry="1.4" fill="#E9E1CF" transform="rotate(168 273.3 189.6)"/><ellipse cx="210.9" cy="176.1" rx="3.2" ry="1.4" fill="#E9E1CF" transform="rotate(156 210.9 176.1)"/><ellipse cx="225.8" cy="162.4" rx="3.2" ry="1.4" fill="#E9E1CF" transform="rotate(129 225.8 162.4)"/><ellipse cx="211.3" cy="179.7" rx="3.2" ry="1.4" fill="#E9E1CF" transform="rotate(24 211.3 179.7)"/><ellipse cx="247.8" cy="160.4" rx="3.2" ry="1.4" fill="#E9E1CF" transform="rotate(96 247.8 160.4)"/><ellipse cx="283.3" cy="191.0" rx="3.2" ry="1.4" fill="#E9E1CF" transform="rotate(3 283.3 191.0)"/><ellipse cx="213.4" cy="180.5" rx="3.2" ry="1.4" fill="#E9E1CF" transform="rotate(147 213.4 180.5)"/><ellipse cx="207.0" cy="153.2" rx="3.2" ry="1.4" fill="#E9E1CF" transform="rotate(157 207.0 153.2)"/><ellipse cx="222.9" cy="165.9" rx="3.2" ry="1.4" fill="#E9E1CF" transform="rotate(4 222.9 165.9)"/><ellipse cx="209.7" cy="203.0" rx="3.2" ry="1.4" fill="#E9E1CF" transform="rotate(56 209.7 203.0)"/><ellipse cx="193.3" cy="185.9" rx="3.2" ry="1.4" fill="#E9E1CF" transform="rotate(20 193.3 185.9)"/><ellipse cx="256.4" cy="179.3" rx="3.2" ry="1.4" fill="#E9E1CF" transform="rotate(67 256.4 179.3)"/><ellipse cx="211.1" cy="173.4" rx="3.2" ry="1.4" fill="#E9E1CF" transform="rotate(41 211.1 173.4)"/><ellipse cx="218.2" cy="177.8" rx="3.2" ry="1.4" fill="#E9E1CF" transform="rotate(119 218.2 177.8)"/><ellipse cx="238.0" cy="179.4" rx="3.2" ry="1.4" fill="#E9E1CF" transform="rotate(143 238.0 179.4)"/><ellipse cx="243.0" cy="172.2" rx="3.2" ry="1.4" fill="#E9E1CF" transform="rotate(96 243.0 172.2)"/><ellipse cx="266.4" cy="175.6" rx="3.2" ry="1.4" fill="#E9E1CF" transform="rotate(174 266.4 175.6)"/><ellipse cx="261.1" cy="211.6" rx="3.2" ry="1.4" fill="#E9E1CF" transform="rotate(98 261.1 211.6)"/><ellipse cx="208.2" cy="158.4" rx="3.2" ry="1.4" fill="#E9E1CF" transform="rotate(57 208.2 158.4)"/><ellipse cx="199.5" cy="162.7" rx="3.2" ry="1.4" fill="#E9E1CF" transform="rotate(94 199.5 162.7)"/><ellipse cx="237.2" cy="179.3" rx="3.2" ry="1.4" fill="#E9E1CF" transform="rotate(104 237.2 179.3)"/><ellipse cx="208.6" cy="206.0" rx="3.2" ry="1.4" fill="#E9E1CF" transform="rotate(30 208.6 206.0)"/><ellipse cx="254.2" cy="196.7" rx="3.2" ry="1.4" fill="#E9E1CF" transform="rotate(44 254.2 196.7)"/><ellipse cx="224.8" cy="211.4" rx="3.2" ry="1.4" fill="#E9E1CF" transform="rotate(17 224.8 211.4)"/><ellipse cx="237.5" cy="197.2" rx="3.2" ry="1.4" fill="#E9E1CF" transform="rotate(78 237.5 197.2)"/><ellipse cx="235.9" cy="146.5" rx="3.2" ry="1.4" fill="#E9E1CF" transform="rotate(34 235.9 146.5)"/><ellipse cx="188.7" cy="164.0" rx="3.2" ry="1.4" fill="#E9E1CF" transform="rotate(170 188.7 164.0)"/><ellipse cx="193.6" cy="175.1" rx="3.2" ry="1.4" fill="#E9E1CF" transform="rotate(3 193.6 175.1)"/><ellipse cx="232.4" cy="189.7" rx="3.2" ry="1.4" fill="#E9E1CF" transform="rotate(107 232.4 189.7)"/><ellipse cx="263.6" cy="164.2" rx="3.2" ry="1.4" fill="#E9E1CF" transform="rotate(76 263.6 164.2)"/><ellipse cx="235.1" cy="174.6" rx="3.2" ry="1.4" fill="#E9E1CF" transform="rotate(165 235.1 174.6)"/><ellipse cx="213.5" cy="191.8" rx="3.2" ry="1.4" fill="#E9E1CF" transform="rotate(3 213.5 191.8)"/><ellipse cx="215.6" cy="156.6" rx="3.2" ry="1.4" fill="#E9E1CF" transform="rotate(122 215.6 156.6)"/><ellipse cx="221.8" cy="171.2" rx="3.2" ry="1.4" fill="#E9E1CF" transform="rotate(177 221.8 171.2)"/><ellipse cx="187.9" cy="163.2" rx="3.2" ry="1.4" fill="#E9E1CF" transform="rotate(71 187.9 163.2)"/><ellipse cx="197.9" cy="161.4" rx="3.2" ry="1.4" fill="#E9E1CF" transform="rotate(46 197.9 161.4)"/><ellipse cx="207.1" cy="185.6" rx="3.2" ry="1.4" fill="#E9E1CF" transform="rotate(178 207.1 185.6)"/><ellipse cx="190.1" cy="161.5" rx="3.2" ry="1.4" fill="#E9E1CF" transform="rotate(115 190.1 161.5)"/><ellipse cx="221.5" cy="178.6" rx="3.2" ry="1.4" fill="#E9E1CF" transform="rotate(131 221.5 178.6)"/><ellipse cx="271.1" cy="157.6" rx="3.2" ry="1.4" fill="#E9E1CF" transform="rotate(152 271.1 157.6)"/><ellipse cx="210.4" cy="199.6" rx="3.2" ry="1.4" fill="#E9E1CF" transform="rotate(156 210.4 199.6)"/><ellipse cx="185.8" cy="168.2" rx="3.2" ry="1.4" fill="#E9E1CF" transform="rotate(171 185.8 168.2)"/><ellipse cx="254.3" cy="179.9" rx="3.2" ry="1.4" fill="#E9E1CF" transform="rotate(147 254.3 179.9)"/><ellipse cx="185.0" cy="188.5" rx="3.2" ry="1.4" fill="#E9E1CF" transform="rotate(27 185.0 188.5)"/><ellipse cx="215.9" cy="175.6" rx="3.2" ry="1.4" fill="#E9E1CF" transform="rotate(135 215.9 175.6)"/><ellipse cx="272.1" cy="193.7" rx="3.2" ry="1.4" fill="#E9E1CF" transform="rotate(101 272.1 193.7)"/><ellipse cx="278.4" cy="165.4" rx="3.2" ry="1.4" fill="#E9E1CF" transform="rotate(80 278.4 165.4)"/><ellipse cx="233.5" cy="203.3" rx="3.2" ry="1.4" fill="#E9E1CF" transform="rotate(100 233.5 203.3)"/><ellipse cx="197.0" cy="163.3" rx="3.2" ry="1.4" fill="#E9E1CF" transform="rotate(156 197.0 163.3)"/><ellipse cx="254.9" cy="184.6" rx="3.2" ry="1.4" fill="#E9E1CF" transform="rotate(73 254.9 184.6)"/><ellipse cx="210.4" cy="177.1" rx="3.2" ry="1.4" fill="#E9E1CF" transform="rotate(178 210.4 177.1)"/><ellipse cx="198.9" cy="191.6" rx="3.2" ry="1.4" fill="#E9E1CF" transform="rotate(40 198.9 191.6)"/><ellipse cx="246.7" cy="181.1" rx="3.2" ry="1.4" fill="#E9E1CF" transform="rotate(66 246.7 181.1)"/><ellipse cx="247.0" cy="185.4" rx="3.2" ry="1.4" fill="#E9E1CF" transform="rotate(93 247.0 185.4)"/><ellipse cx="215.6" cy="157.2" rx="3.2" ry="1.4" fill="#E9E1CF" transform="rotate(101 215.6 157.2)"/><ellipse cx="212.9" cy="204.7" rx="3.2" ry="1.4" fill="#E9E1CF" transform="rotate(5 212.9 204.7)"/><ellipse cx="254.2" cy="211.0" rx="3.2" ry="1.4" fill="#E9E1CF" transform="rotate(113 254.2 211.0)"/><ellipse cx="218.7" cy="215.4" rx="3.2" ry="1.4" fill="#E9E1CF" transform="rotate(32 218.7 215.4)"/><ellipse cx="224.1" cy="211.2" rx="3.2" ry="1.4" fill="#E9E1CF" transform="rotate(155 224.1 211.2)"/><ellipse cx="237.0" cy="145.3" rx="3.2" ry="1.4" fill="#E9E1CF" transform="rotate(52 237.0 145.3)"/><ellipse cx="268.1" cy="204.8" rx="3.2" ry="1.4" fill="#E9E1CF" transform="rotate(142 268.1 204.8)"/><ellipse cx="269.6" cy="161.7" rx="3.2" ry="1.4" fill="#E9E1CF" transform="rotate(140 269.6 161.7)"/><ellipse cx="214.3" cy="152.6" rx="3.2" ry="1.4" fill="#E9E1CF" transform="rotate(172 214.3 152.6)"/><path d="M231.9 110.5 q 14 -16 28 0 q -14 16 -28 0 z" fill="#4E9440" transform="rotate(23 231.9 110.5)"/><path d="M235.9 125.8 q 14 -16 28 0 q -14 16 -28 0 z" fill="#6AAE4B" transform="rotate(8 235.9 125.8)"/><path d="M213.1 123.5 q 14 -16 28 0 q -14 16 -28 0 z" fill="#4E9440" transform="rotate(88 213.1 123.5)"/><path d="M251.5 114.5 q 14 -16 28 0 q -14 16 -28 0 z" fill="#6AAE4B" transform="rotate(129 251.5 114.5)"/><path d="M256.6 117.1 q 14 -16 28 0 q -14 16 -28 0 z" fill="#4E9440" transform="rotate(140 256.6 117.1)"/><path d="M247.4 128.8 q 14 -16 28 0 q -14 16 -28 0 z" fill="#6AAE4B" transform="rotate(95 247.4 128.8)"/><rect x="140.9" y="193.5" width="30" height="7" rx="3.5" fill="#D8432F" transform="rotate(72 140.9 193.5)"/><rect x="140.2" y="182.7" width="30" height="7" rx="3.5" fill="#D8432F" transform="rotate(132 140.2 182.7)"/><rect x="140.9" y="206.9" width="30" height="7" rx="3.5" fill="#D8432F" transform="rotate(124 140.9 206.9)"/><rect x="140.6" y="184.2" width="30" height="7" rx="3.5" fill="#D8432F" transform="rotate(6 140.6 184.2)"/><rect x="177.5" y="185.0" width="28" height="7" rx="3.5" fill="#E8B02F" transform="rotate(58 177.5 185.0)"/><rect x="159.9" y="177.3" width="28" height="7" rx="3.5" fill="#E8B02F" transform="rotate(106 159.9 177.3)"/><rect x="188.1" y="205.7" width="28" height="7" rx="3.5" fill="#5B9A3C" transform="rotate(97 188.1 205.7)"/><rect x="161.4" y="184.5" width="28" height="7" rx="3.5" fill="#5B9A3C" transform="rotate(73 161.4 184.5)"/><rect x="213.9" y="225.6" width="34" height="5" rx="2.5" fill="#4E9440" transform="rotate(54 213.9 225.6)"/><rect x="199.1" y="216.3" width="34" height="5" rx="2.5" fill="#4E9440" transform="rotate(48 199.1 216.3)"/><rect x="180.3" y="221.8" width="34" height="5" rx="2.5" fill="#4E9440" transform="rotate(104 180.3 221.8)"/><rect x="181.9" y="201.1" width="34" height="5" rx="2.5" fill="#4E9440" transform="rotate(145 181.9 201.1)"/><rect x="194.6" y="221.4" width="34" height="5" rx="2.5" fill="#4E9440" transform="rotate(60 194.6 221.4)"/><rect x="195.5" y="198.1" width="34" height="5" rx="2.5" fill="#4E9440" transform="rotate(27 195.5 198.1)"/><rect x="200.3" y="206.0" width="34" height="5" rx="2.5" fill="#4E9440" transform="rotate(153 200.3 206.0)"/><rect x="215.6" y="209.0" width="34" height="5" rx="2.5" fill="#4E9440" transform="rotate(95 215.6 209.0)"/><rect x="194.8" y="227.3" width="34" height="5" rx="2.5" fill="#4E9440" transform="rotate(31 194.8 227.3)"/></g>
  <g transform="translate(330 248) scale(0.085)" opacity="0.9">
    <path d="M95 400 C113.3 369.2 167.5 224.2 205 215 C242.5 205.8 283.3 355.0 320 345 C356.7 335.0 395.8 145.0 425 155 C454.2 165.0 483.3 363.3 495 405" fill="none" stroke="#1B1B44" stroke-width="44" stroke-linecap="round" stroke-linejoin="round"/>
    <circle cx="425" cy="78" r="34" fill="#F2A41E"/></g>
</svg>
