<svg xmlns="http://www.w3.org/2000/svg" viewBox="0 0 400 300" role="img" aria-label="Tofu and veggie stir fry with cashews">
  <defs>
    <radialGradient id="bg" cx="40%" cy="30%" r="80%"><stop offset="0" stop-color="#FFFCF6"/><stop offset="1" stop-color="#F1E5D9"/></radialGradient>
    <radialGradient id="shine" cx="35%" cy="30%" r="70%"><stop offset="0" stop-color="#FFFFFF" stop-opacity="0.35"/><stop offset="1" stop-color="#FFFFFF" stop-opacity="0"/></radialGradient>
  </defs>
  <rect width="400" height="300" rx="28" fill="url(#bg)"/>
  <circle cx="50" cy="263" r="5" fill="#F2A41E" opacity="0.5"/>
  <circle cx="347" cy="41" r="4" fill="#1B1B44" opacity="0.15"/>
  <ellipse cx="200" cy="162" rx="146" ry="110" fill="#000" opacity="0.07"/><circle cx="200" cy="150" r="135" fill="#FFFFFF"/><circle cx="200" cy="150" r="135" fill="none" stroke="#E7E1D6" stroke-width="3"/><circle cx="200" cy="150" r="110" fill="none" stroke="#F1ECE3" stroke-width="2"/>
  <g><ellipse cx="210" cy="156" rx="86" ry="70" fill="#7A4320" opacity="0.85"/><ellipse cx="154" cy="176" rx="58" ry="44" fill="#FBF8F1"/><ellipse cx="176.3" cy="151.4" rx="3.2" ry="1.4" fill="#E9E1CF" transform="rotate(55 176.3 151.4)"/><ellipse cx="116.2" cy="178.5" rx="3.2" ry="1.4" fill="#E9E1CF" transform="rotate(56 116.2 178.5)"/><ellipse cx="200.7" cy="166.7" rx="3.2" ry="1.4" fill="#E9E1CF" transform="rotate(132 200.7 166.7)"/><ellipse cx="146.5" cy="161.2" rx="3.2" ry="1.4" fill="#E9E1CF" transform="rotate(154 146.5 161.2)"/><ellipse cx="152.8" cy="138.4" rx="3.2" ry="1.4" fill="#E9E1CF" transform="rotate(169 152.8 138.4)"/><ellipse cx="161.6" cy="191.8" rx="3.2" ry="1.4" fill="#E9E1CF" transform="rotate(99 161.6 191.8)"/><ellipse cx="151.7" cy="212.0" rx="3.2" ry="1.4" fill="#E9E1CF" transform="rotate(67 151.7 212.0)"/><ellipse cx="167.0" cy="186.9" rx="3.2" ry="1.4" fill="#E9E1CF" transform="rotate(36 167.0 186.9)"/><ellipse cx="122.7" cy="172.5" rx="3.2" ry="1.4" fill="#E9E1CF" transform="rotate(69 122.7 172.5)"/><ellipse cx="107.6" cy="168.7" rx="3.2" ry="1.4" fill="#E9E1CF" transform="rotate(83 107.6 168.7)"/><ellipse cx="121.7" cy="184.3" rx="3.2" ry="1.4" fill="#E9E1CF" transform="rotate(170 121.7 184.3)"/><ellipse cx="176.4" cy="196.8" rx="3.2" ry="1.4" fill="#E9E1CF" transform="rotate(75 176.4 196.8)"/><ellipse cx="112.9" cy="191.9" rx="3.2" ry="1.4" fill="#E9E1CF" transform="rotate(59 112.9 191.9)"/><ellipse cx="152.1" cy="175.5" rx="3.2" ry="1.4" fill="#E9E1CF" transform="rotate(11 152.1 175.5)"/><ellipse cx="149.2" cy="182.8" rx="3.2" ry="1.4" fill="#E9E1CF" transform="rotate(77 149.2 182.8)"/><ellipse cx="192.5" cy="170.8" rx="3.2" ry="1.4" fill="#E9E1CF" transform="rotate(163 192.5 170.8)"/><ellipse cx="103.7" cy="183.3" rx="3.2" ry="1.4" fill="#E9E1CF" transform="rotate(14 103.7 183.3)"/><ellipse cx="118.6" cy="148.6" rx="3.2" ry="1.4" fill="#E9E1CF" transform="rotate(103 118.6 148.6)"/><ellipse cx="166.6" cy="155.2" rx="3.2" ry="1.4" fill="#E9E1CF" transform="rotate(70 166.6 155.2)"/><ellipse cx="192.9" cy="153.8" rx="3.2" ry="1.4" fill="#E9E1CF" transform="rotate(155 192.9 153.8)"/><ellipse cx="162.3" cy="140.6" rx="3.2" ry="1.4" fill="#E9E1CF" transform="rotate(151 162.3 140.6)"/><ellipse cx="123.4" cy="194.2" rx="3.2" ry="1.4" fill="#E9E1CF" transform="rotate(101 123.4 194.2)"/><ellipse cx="198.1" cy="169.7" rx="3.2" ry="1.4" fill="#E9E1CF" transform="rotate(18 198.1 169.7)"/><ellipse cx="191.8" cy="151.7" rx="3.2" ry="1.4" fill="#E9E1CF" transform="rotate(90 191.8 151.7)"/><ellipse cx="197.9" cy="190.1" rx="3.2" ry="1.4" fill="#E9E1CF" transform="rotate(5 197.9 190.1)"/><ellipse cx="166.5" cy="203.3" rx="3.2" ry="1.4" fill="#E9E1CF" transform="rotate(17 166.5 203.3)"/><ellipse cx="148.0" cy="199.9" rx="3.2" ry="1.4" fill="#E9E1CF" transform="rotate(9 148.0 199.9)"/><ellipse cx="176.7" cy="164.9" rx="3.2" ry="1.4" fill="#E9E1CF" transform="rotate(91 176.7 164.9)"/><ellipse cx="185.2" cy="198.3" rx="3.2" ry="1.4" fill="#E9E1CF" transform="rotate(166 185.2 198.3)"/><ellipse cx="153.3" cy="213.9" rx="3.2" ry="1.4" fill="#E9E1CF" transform="rotate(159 153.3 213.9)"/><ellipse cx="136.0" cy="185.7" rx="3.2" ry="1.4" fill="#E9E1CF" transform="rotate(75 136.0 185.7)"/><ellipse cx="158.0" cy="206.9" rx="3.2" ry="1.4" fill="#E9E1CF" transform="rotate(141 158.0 206.9)"/><ellipse cx="128.7" cy="178.1" rx="3.2" ry="1.4" fill="#E9E1CF" transform="rotate(151 128.7 178.1)"/><ellipse cx="204.6" cy="181.8" rx="3.2" ry="1.4" fill="#E9E1CF" transform="rotate(155 204.6 181.8)"/><ellipse cx="183.6" cy="181.9" rx="3.2" ry="1.4" fill="#E9E1CF" transform="rotate(30 183.6 181.9)"/><ellipse cx="132.7" cy="176.6" rx="3.2" ry="1.4" fill="#E9E1CF" transform="rotate(1 132.7 176.6)"/><ellipse cx="115.3" cy="199.3" rx="3.2" ry="1.4" fill="#E9E1CF" transform="rotate(102 115.3 199.3)"/><ellipse cx="158.7" cy="213.8" rx="3.2" ry="1.4" fill="#E9E1CF" transform="rotate(170 158.7 213.8)"/><ellipse cx="200.3" cy="165.6" rx="3.2" ry="1.4" fill="#E9E1CF" transform="rotate(128 200.3 165.6)"/><ellipse cx="131.8" cy="179.8" rx="3.2" ry="1.4" fill="#E9E1CF" transform="rotate(79 131.8 179.8)"/><ellipse cx="166.8" cy="199.0" rx="3.2" ry="1.4" fill="#E9E1CF" transform="rotate(164 166.8 199.0)"/><ellipse cx="119.1" cy="179.8" rx="3.2" ry="1.4" fill="#E9E1CF" transform="rotate(55 119.1 179.8)"/><ellipse cx="168.2" cy="172.7" rx="3.2" ry="1.4" fill="#E9E1CF" transform="rotate(149 168.2 172.7)"/><ellipse cx="191.9" cy="190.8" rx="3.2" ry="1.4" fill="#E9E1CF" transform="rotate(84 191.9 190.8)"/><ellipse cx="186.1" cy="163.2" rx="3.2" ry="1.4" fill="#E9E1CF" transform="rotate(75 186.1 163.2)"/><ellipse cx="117.0" cy="189.5" rx="3.2" ry="1.4" fill="#E9E1CF" transform="rotate(30 117.0 189.5)"/><ellipse cx="154.1" cy="160.8" rx="3.2" ry="1.4" fill="#E9E1CF" transform="rotate(4 154.1 160.8)"/><ellipse cx="115.4" cy="153.6" rx="3.2" ry="1.4" fill="#E9E1CF" transform="rotate(86 115.4 153.6)"/><ellipse cx="186.8" cy="183.1" rx="3.2" ry="1.4" fill="#E9E1CF" transform="rotate(47 186.8 183.1)"/><ellipse cx="149.5" cy="187.8" rx="3.2" ry="1.4" fill="#E9E1CF" transform="rotate(154 149.5 187.8)"/><ellipse cx="193.6" cy="184.0" rx="3.2" ry="1.4" fill="#E9E1CF" transform="rotate(84 193.6 184.0)"/><ellipse cx="167.6" cy="195.4" rx="3.2" ry="1.4" fill="#E9E1CF" transform="rotate(142 167.6 195.4)"/><ellipse cx="191.2" cy="188.2" rx="3.2" ry="1.4" fill="#E9E1CF" transform="rotate(57 191.2 188.2)"/><ellipse cx="168.1" cy="170.5" rx="3.2" ry="1.4" fill="#E9E1CF" transform="rotate(156 168.1 170.5)"/><ellipse cx="163.7" cy="209.0" rx="3.2" ry="1.4" fill="#E9E1CF" transform="rotate(68 163.7 209.0)"/><ellipse cx="188.5" cy="157.2" rx="3.2" ry="1.4" fill="#E9E1CF" transform="rotate(131 188.5 157.2)"/><ellipse cx="167.0" cy="149.8" rx="3.2" ry="1.4" fill="#E9E1CF" transform="rotate(122 167.0 149.8)"/><ellipse cx="177.0" cy="203.3" rx="3.2" ry="1.4" fill="#E9E1CF" transform="rotate(40 177.0 203.3)"/><ellipse cx="192.0" cy="175.6" rx="3.2" ry="1.4" fill="#E9E1CF" transform="rotate(80 192.0 175.6)"/><ellipse cx="161.5" cy="161.0" rx="3.2" ry="1.4" fill="#E9E1CF" transform="rotate(116 161.5 161.0)"/><ellipse cx="145.8" cy="176.9" rx="3.2" ry="1.4" fill="#E9E1CF" transform="rotate(172 145.8 176.9)"/><ellipse cx="124.0" cy="174.7" rx="3.2" ry="1.4" fill="#E9E1CF" transform="rotate(160 124.0 174.7)"/><ellipse cx="144.3" cy="167.3" rx="3.2" ry="1.4" fill="#E9E1CF" transform="rotate(168 144.3 167.3)"/><ellipse cx="190.8" cy="201.8" rx="3.2" ry="1.4" fill="#E9E1CF" transform="rotate(43 190.8 201.8)"/><ellipse cx="174.9" cy="192.8" rx="3.2" ry="1.4" fill="#E9E1CF" transform="rotate(158 174.9 192.8)"/><ellipse cx="152.9" cy="192.9" rx="3.2" ry="1.4" fill="#E9E1CF" transform="rotate(112 152.9 192.9)"/><ellipse cx="194.4" cy="189.0" rx="3.2" ry="1.4" fill="#E9E1CF" transform="rotate(173 194.4 189.0)"/><ellipse cx="184.1" cy="174.1" rx="3.2" ry="1.4" fill="#E9E1CF" transform="rotate(159 184.1 174.1)"/><ellipse cx="131.8" cy="146.5" rx="3.2" ry="1.4" fill="#E9E1CF" transform="rotate(46 131.8 146.5)"/><ellipse cx="165.0" cy="178.6" rx="3.2" ry="1.4" fill="#E9E1CF" transform="rotate(153 165.0 178.6)"/><rect x="186" y="92" width="20" height="20" rx="4" fill="#F2DDA8" stroke="#D7B36A" stroke-width="2"/><rect x="210" y="92" width="20" height="20" rx="4" fill="#F2DDA8" stroke="#D7B36A" stroke-width="2"/><rect x="234" y="92" width="20" height="20" rx="4" fill="#F2DDA8" stroke="#D7B36A" stroke-width="2"/><rect x="258" y="92" width="20" height="20" rx="4" fill="#F2DDA8" stroke="#D7B36A" stroke-width="2"/><rect x="186" y="118" width="20" height="20" rx="4" fill="#F2DDA8" stroke="#D7B36A" stroke-width="2"/><rect x="210" y="118" width="20" height="20" rx="4" fill="#F2DDA8" stroke="#D7B36A" stroke-width="2"/><rect x="234" y="118" width="20" height="20" rx="4" fill="#F2DDA8" stroke="#D7B36A" stroke-width="2"/><rect x="258" y="118" width="20" height="20" rx="4" fill="#F2DDA8" stroke="#D7B36A" stroke-width="2"/><rect x="229.8692528437823" y="182" width="6" height="12" fill="#8DB25C"/><circle cx="226.8692528437823" cy="182" r="8" fill="#3F7F35"/><circle cx="238.8692528437823" cy="182" r="8" fill="#3F7F35"/><circle cx="232.8692528437823" cy="176" r="9" fill="#4E9440"/><rect x="255.3775971531868" y="182" width="6" height="12" fill="#8DB25C"/><circle cx="252.3775971531868" cy="182" r="8" fill="#3F7F35"/><circle cx="264.3775971531868" cy="182" r="8" fill="#3F7F35"/><circle cx="258.3775971531868" cy="176" r="9" fill="#4E9440"/><rect x="279.26153157278895" y="182" width="6" height="12" fill="#8DB25C"/><circle cx="276.26153157278895" cy="182" r="8" fill="#3F7F35"/><circle cx="288.26153157278895" cy="182" r="8" fill="#3F7F35"/><circle cx="282.26153157278895" cy="176" r="9" fill="#4E9440"/><rect x="227.2757711005397" y="206" width="6" height="12" fill="#8DB25C"/><circle cx="224.2757711005397" cy="206" r="8" fill="#3F7F35"/><circle cx="236.2757711005397" cy="206" r="8" fill="#3F7F35"/><circle cx="230.2757711005397" cy="200" r="9" fill="#4E9440"/><rect x="255.00543465232477" y="206" width="6" height="12" fill="#8DB25C"/><circle cx="252.00543465232477" cy="206" r="8" fill="#3F7F35"/><circle cx="264.00543465232477" cy="206" r="8" fill="#3F7F35"/><circle cx="258.00543465232477" cy="200" r="9" fill="#4E9440"/><rect x="133.1" y="88.0" width="30" height="7" rx="3.5" fill="#D8432F" transform="rotate(140 133.1 88.0)"/><rect x="179.5" y="97.7" width="30" height="7" rx="3.5" fill="#D8432F" transform="rotate(64 179.5 97.7)"/><rect x="166.9" y="116.1" width="30" height="7" rx="3.5" fill="#D8432F" transform="rotate(118 166.9 116.1)"/><rect x="155.3" y="87.3" width="30" height="7" rx="3.5" fill="#D8432F" transform="rotate(145 155.3 87.3)"/><rect x="141.6" y="93.9" width="28" height="7" rx="3.5" fill="#E8B02F" transform="rotate(4 141.6 93.9)"/><rect x="135.3" y="82.9" width="28" height="7" rx="3.5" fill="#E8B02F" transform="rotate(73 135.3 82.9)"/><rect x="172.8" y="86.7" width="28" height="7" rx="3.5" fill="#5B9A3C" transform="rotate(20 172.8 86.7)"/><rect x="123.8" y="94.3" width="28" height="7" rx="3.5" fill="#5B9A3C" transform="rotate(143 123.8 94.3)"/><circle cx="223.7" cy="138.4" r="3.6" fill="#F2C230"/><circle cx="249.0" cy="158.9" r="3.6" fill="#F2C230"/><circle cx="246.2" cy="151.8" r="3.6" fill="#F2C230"/><circle cx="250.8" cy="156.9" r="3.6" fill="#F2C230"/><circle cx="236.9" cy="149.0" r="3.6" fill="#F2C230"/><circle cx="271.6" cy="135.8" r="3.6" fill="#F2C230"/><circle cx="238.6" cy="126.9" r="3.6" fill="#F2C230"/><circle cx="278.2" cy="155.1" r="3.6" fill="#F2C230"/><circle cx="279.2" cy="143.8" r="3.6" fill="#F2C230"/><circle cx="238.9" cy="154.8" r="3.6" fill="#F2C230"/><circle cx="240.7" cy="160.0" r="3.6" fill="#F2C230"/><circle cx="225.4" cy="144.1" r="3.6" fill="#F2C230"/><circle cx="258.1" cy="154.8" r="3.6" fill="#F2C230"/><circle cx="249.5" cy="155.5" r="3.6" fill="#F2C230"/><circle cx="244.4" cy="170.6" r="3.6" fill="#F2C230"/><circle cx="275.2" cy="145.6" r="3.6" fill="#F2C230"/><circle cx="267.8" cy="144.1" r="3.6" fill="#F2C230"/><circle cx="250.3" cy="171.6" r="3.6" fill="#F2C230"/><circle cx="242.7" cy="166.9" r="3.6" fill="#F2C230"/><circle cx="224.7" cy="152.2" r="3.6" fill="#F2C230"/><circle cx="258.7" cy="127.9" r="3.6" fill="#F2C230"/><circle cx="233.5" cy="162.3" r="3.6" fill="#F2C230"/><circle cx="246.5" cy="155.4" r="3.6" fill="#F2C230"/><circle cx="248.6" cy="125.6" r="3.6" fill="#F2C230"/><circle cx="261.3" cy="168.6" r="3.6" fill="#F2C230"/><circle cx="255.4" cy="131.1" r="3.6" fill="#F2C230"/><circle cx="234.0" cy="140.1" r="3.6" fill="#F2C230"/><circle cx="269.6" cy="146.8" r="3.6" fill="#F2C230"/><circle cx="281.8" cy="152.8" r="3.6" fill="#F2C230"/><circle cx="248.3" cy="139.0" r="3.6" fill="#F2C230"/></g>
  <g transform="translate(330 248) scale(0.085)" opacity="0.9">
    <path d="M95 400 C113.3 369.2 167.5 224.2 205 215 C242.5 205.8 283.3 355.0 320 345 C356.7 335.0 395.8 145.0 425 155 C454.2 165.0 483.3 363.3 495 405" fill="none" stroke="#1B1B44" stroke-width="44" stroke-linecap="round" stroke-linejoin="round"/>
    <circle cx="425" cy="78" r="34" fill="#F2A41E"/></g>
</svg>
