<svg xmlns="http://www.w3.org/2000/svg" viewBox="0 0 400 300" role="img" aria-label="Turkey meatballs marinara over spaghetti">
  <defs>
    <radialGradient id="bg" cx="40%" cy="30%" r="80%"><stop offset="0" stop-color="#FFFCF6"/><stop offset="1" stop-color="#F4E1DA"/></radialGradient>
    <radialGradient id="shine" cx="35%" cy="30%" r="70%"><stop offset="0" stop-color="#FFFFFF" stop-opacity="0.35"/><stop offset="1" stop-color="#FFFFFF" stop-opacity="0"/></radialGradient>
  </defs>
  <rect width="400" height="300" rx="28" fill="url(#bg)"/>
  <circle cx="73" cy="266" r="5" fill="#F2A41E" opacity="0.5"/>
  <circle cx="351" cy="35" r="4" fill="#1B1B44" opacity="0.15"/>
  <ellipse cx="200" cy="162" rx="146" ry="110" fill="#000" opacity="0.07"/><circle cx="200" cy="150" r="135" fill="#FFFFFF"/><circle cx="200" cy="150" r="135" fill="none" stroke="#E7E1D6" stroke-width="3"/><circle cx="200" cy="150" r="110" fill="none" stroke="#F1ECE3" stroke-width="2"/>
  <g><ellipse cx="210" cy="156" rx="86" ry="70" fill="#C8432C" opacity="0.85"/><ellipse cx="154" cy="176" rx="58" ry="44" fill="#F0D9A0" opacity="0.55"/><path d="M102 143.8 q 13 -9 26 0 t 26 0 t 26 0 t 26 0" fill="none" stroke="#F0D9A0" stroke-width="5" stroke-linecap="round"/><path d="M102 151.8 q 13 -9 26 0 t 26 0 t 26 0 t 26 0" fill="none" stroke="#F0D9A0" stroke-width="5" stroke-linecap="round"/><path d="M102 160.0 q 13 -9 26 0 t 26 0 t 26 0 t 26 0" fill="none" stroke="#F0D9A0" stroke-width="5" stroke-linecap="round"/><path d="M102 168.3 q 13 -9 26 0 t 26 0 t 26 0 t 26 0" fill="none" stroke="#F0D9A0" stroke-width="5" stroke-linecap="round"/><path d="M102 176.7 q 13 -9 26 0 t 26 0 t 26 0 t 26 0" fill="none" stroke="#F0D9A0" stroke-width="5" stroke-linecap="round"/><path d="M102 184.7 q 13 -9 26 0 t 26 0 t 26 0 t 26 0" fill="none" stroke="#F0D9A0" stroke-width="5" stroke-linecap="round"/><path d="M102 196.0 q 13 -9 26 0 t 26 0 t 26 0 t 26 0" fill="none" stroke="#F0D9A0" stroke-width="5" stroke-linecap="round"/><path d="M102 202.9 q 13 -9 26 0 t 26 0 t 26 0 t 26 0" fill="none" stroke="#F0D9A0" stroke-width="5" stroke-linecap="round"/><path d="M102 210.8 q 13 -9 26 0 t 26 0 t 26 0 t 26 0" fill="none" stroke="#F0D9A0" stroke-width="5" stroke-linecap="round"/><circle cx="194" cy="100" r="15" fill="#8A4B30"/><circle cx="190" cy="95" r="5" fill="#A8664A"/><circle cx="228" cy="100" r="15" fill="#8A4B30"/><circle cx="224" cy="95" r="5" fill="#A8664A"/><circle cx="262" cy="100" r="15" fill="#8A4B30"/><circle cx="258" cy="95" r="5" fill="#A8664A"/><circle cx="194" cy="130" r="15" fill="#8A4B30"/><circle cx="190" cy="125" r="5" fill="#A8664A"/><circle cx="228" cy="130" r="15" fill="#8A4B30"/><circle cx="224" cy="125" r="5" fill="#A8664A"/><circle cx="262" cy="130" r="15" fill="#8A4B30"/><circle cx="258" cy="125" r="5" fill="#A8664A"/><path d="M268.4 193.1 q 14 -16 28 0 q -14 16 -28 0 z" fill="#4E9440" transform="rotate(155 268.4 193.1)"/><path d="M259.1 198.1 q 14 -16 28 0 q -14 16 -28 0 z" fill="#6AAE4B" transform="rotate(163 259.1 198.1)"/><path d="M236.5 198.5 q 14 -16 28 0 q -14 16 -28 0 z" fill="#4E9440" transform="rotate(4 236.5 198.5)"/><path d="M246.9 178.7 q 14 -16 28 0 q -14 16 -28 0 z" fill="#6AAE4B" transform="rotate(55 246.9 178.7)"/><path d="M269.5 196.2 q 14 -16 28 0 q -14 16 -28 0 z" fill="#4E9440" transform="rotate(58 269.5 196.2)"/><path d="M273.9 201.2 q 14 -16 28 0 q -14 16 -28 0 z" fill="#6AAE4B" transform="rotate(148 273.9 201.2)"/></g>
  <g transform="translate(330 248) scale(0.085)" opacity="0.9">
    <path d="M95 400 C113.3 369.2 167.5 224.2 205 215 C242.5 205.8 283.3 355.0 320 345 C356.7 335.0 395.8 145.0 425 155 C454.2 165.0 483.3 363.3 495 405" fill="none" stroke="#1B1B44" stroke-width="44" stroke-linecap="round" stroke-linejoin="round"/>
    <circle cx="425" cy="78" r="34" fill="#F2A41E"/></g>
</svg>
